<?xml version="1.0" encoding="utf-8"?><svg xmlns="http://www.w3.org/2000/svg" xmlns:xlink="http://www.w3.org/1999/xlink"><symbol viewBox="0 0 7.98 10.01" id="adv-icon" xmlns="http://www.w3.org/2000/svg"><path fill-rule="evenodd" clip-rule="evenodd" d="M3.806.077a.318.318 0 01.384 0l2.046 1.567a.285.285 0 01.048.413.316.316 0 01-.432.046L4.305.918v6.44a.3.3 0 01-.307.295.3.3 0 01-.307-.294V.918L2.143 2.103a.316.316 0 01-.431-.046.285.285 0 01.048-.413L3.806.077z"/><path fill-rule="evenodd" clip-rule="evenodd" d="M1.133 4.127a.501.501 0 00-.511.49v4.309c0 .27.229.49.511.49h5.73c.283 0 .512-.22.512-.49v-4.31c0-.27-.23-.49-.512-.49h-1.11a.3.3 0 01-.308-.293.3.3 0 01.307-.294h1.111c.622 0 1.126.482 1.126 1.077v4.31c0 .595-.504 1.078-1.126 1.078h-5.73c-.621 0-1.125-.483-1.125-1.078v-4.31c0-.595.504-1.077 1.125-1.077h1.111a.3.3 0 01.307.294.3.3 0 01-.307.294h-1.11z"/></symbol><symbol viewBox="0 0 16.82 19.9" id="bell-icon" xmlns="http://www.w3.org/2000/svg"><path d="M10.74 17.577c0 .984-.526 1.737-1.378 2.23a2.749 2.749 0 01-2.751 0c-.852-.493-1.377-1.246-1.377-2.23M7.986.396c.751 0 1.356.462 1.356 1.174 0 .448.015.782.297.868 2.394.723 3.93 2.418 3.93 4.618v3.699c0 1.694.692 2.037 1.565 2.685 1.263.938.975 2.889-.475 2.888H1.314c-1.45.001-1.738-1.95-.475-2.887.872-.649 1.566-.992 1.566-2.686V7.056c0-2.2 1.535-3.895 3.93-4.618.28-.086.296-.42.296-.868 0-.712.605-1.174 1.355-1.174z"/></symbol><symbol viewBox="0 0 12 12" id="info-icon" xmlns="http://www.w3.org/2000/svg"><path fill-rule="evenodd" clip-rule="evenodd" d="M6 11.333A5.333 5.333 0 106 .667a5.333 5.333 0 000 10.666zM12 6A6 6 0 110 6a6 6 0 0112 0z"/><path fill-rule="evenodd" clip-rule="evenodd" d="M5.664 8.668V4.667h.667v4h-.667zm0-4.668v-.667h.667V4h-.667z"/></symbol><symbol viewBox="0 0 0 0" id="menu-icon" xmlns="http://www.w3.org/2000/svg"><rect x=".692" y="13.615" rx="1.615"/><rect x=".692" y=".692" rx="1.615"/><rect x="13.615" y=".692" rx="1.615"/><rect x="13.615" y="13.615" rx="1.615"/></symbol><symbol viewBox="0 0 13.23 13.23" id="search-icon" xmlns="http://www.w3.org/2000/svg"><path d="M10.406 10.648l.406-.406 2.256 2.257-.406.406z"/><circle cx="7.337" cy="7.321" r="4.677" transform="rotate(-45 7.337 7.321)"/></symbol><symbol viewBox="0 0 12.36 10.98" id="star-icon" xmlns="http://www.w3.org/2000/svg"><path d="M6.5 0l1.46 4.192h4.722l-3.82 2.59 1.459 4.193L6.5 8.384l-3.82 2.59 1.459-4.191-3.82-2.591H5.04L6.5 0z"/></symbol></svg>