<?xml version="1.0" encoding="utf-8"?><svg xmlns="http://www.w3.org/2000/svg" xmlns:xlink="http://www.w3.org/1999/xlink"><symbol viewBox="0 0 7.98 10.01" id="adv-icon" xmlns="http://www.w3.org/2000/svg"><path fill-rule="evenodd" clip-rule="evenodd" d="M3.806.077a.318.318 0 01.384 0l2.046 1.567a.285.285 0 01.048.413.316.316 0 01-.432.046L4.305.918v6.44a.3.3 0 01-.307.295.3.3 0 01-.307-.294V.918L2.143 2.103a.316.316 0 01-.431-.046.285.285 0 01.048-.413L3.806.077z"/><path fill-rule="evenodd" clip-rule="evenodd" d="M1.133 4.127a.501.501 0 00-.511.49v4.309c0 .27.229.49.511.49h5.73c.283 0 .512-.22.512-.49v-4.31c0-.27-.23-.49-.512-.49h-1.11a.3.3 0 01-.308-.293.3.3 0 01.307-.294h1.111c.622 0 1.126.482 1.126 1.077v4.31c0 .595-.504 1.078-1.126 1.078h-5.73c-.621 0-1.125-.483-1.125-1.078v-4.31c0-.595.504-1.077 1.125-1.077h1.111a.3.3 0 01.307.294.3.3 0 01-.307.294h-1.11z"/></symbol><symbol viewBox="0 0 16.82 19.9" id="bell-icon" xmlns="http://www.w3.org/2000/svg"><path d="M10.74 17.577c0 .984-.526 1.737-1.378 2.23a2.749 2.749 0 01-2.751 0c-.852-.493-1.377-1.246-1.377-2.23M7.986.396c.751 0 1.356.462 1.356 1.174 0 .448.015.782.297.868 2.394.723 3.93 2.418 3.93 4.618v3.699c0 1.694.692 2.037 1.565 2.685 1.263.938.975 2.889-.475 2.888H1.314c-1.45.001-1.738-1.95-.475-2.887.872-.649 1.566-.992 1.566-2.686V7.056c0-2.2 1.535-3.895 3.93-4.618.28-.086.296-.42.296-.868 0-.712.605-1.174 1.355-1.174z"/></symbol><symbol viewBox="0 0 8.05 10" id="cmnty-icon" xmlns="http://www.w3.org/2000/svg"><path d="M4 4.5c1.326 0 2.4-1.007 2.4-2.25S5.327 0 4 0C2.676 0 1.6 1.007 1.6 2.25S2.676 4.5 4 4.5zm3.984 4.879l-.865-3.243a1.495 1.495 0 00-.567-.818A1.67 1.67 0 005.567 5H2.433a1.67 1.67 0 00-.985.318 1.495 1.495 0 00-.567.818L.016 9.379a.47.47 0 00.097.429.554.554 0 00.42.192h6.934a.563.563 0 00.234-.05.528.528 0 00.186-.142.487.487 0 00.097-.43z"/></symbol><symbol viewBox="0 0 9.4 10.84" id="contr-icon" xmlns="http://www.w3.org/2000/svg"><path d="M9.12 2.084L7.584.363A1.087 1.087 0 006.773 0H1.084A1.088 1.088 0 000 1.084v8.674a1.088 1.088 0 001.084 1.084h7.23A1.088 1.088 0 009.4 9.758V2.805c0-.266-.099-.524-.278-.721zm-.568.447H6.858V.742a.356.356 0 01.176.102L8.552 2.53zm.017 7.48a.363.363 0 01-.255.11h-7.23a.363.363 0 01-.254-.11.34.34 0 01-.105-.253V1.084a.366.366 0 01.36-.362h5.061V2.89a.36.36 0 00.36.363h2.168v6.505a.339.339 0 01-.105.254z"/><path d="M6.146 8.311H5.062a.363.363 0 100 .725h1.084a.363.363 0 100-.725zm1.084.725a.363.363 0 100-.725.363.363 0 000 .725zM2.168 3.253h1.81a.362.362 0 000-.722h-1.81a.363.363 0 000 .722zm0 1.805H7.23a.363.363 0 000-.721H2.168a.363.363 0 000 .721zM7.59 6.505a.36.36 0 00-.36-.362H2.168a.363.363 0 000 .725H7.23a.36.36 0 00.36-.363z"/></symbol><symbol viewBox="0 0 14.88 13.01" id="downloadGif" xmlns="http://www.w3.org/2000/svg"><path fill-rule="evenodd" clip-rule="evenodd" d="M.135 1.41c0-.35.203-.56.54-.56h13.796c.27 0 .54.21.54.56v11.889c0 .28-.27.56-.54.56H.676c-.338 0-.541-.28-.541-.56V1.41zm1.014.49v10.91h12.848V1.9H1.15z"/><path d="M5.67 6.445h.948c-.136-.91-.88-1.539-1.894-1.539-1.15 0-2.096.84-2.096 2.378 0 1.399.879 2.308 2.096 2.308 1.15 0 1.961-.7 1.961-1.958v-.56H4.792v.77h.947c0 .559-.406.909-1.015.909-.676 0-1.15-.56-1.15-1.539 0-.91.474-1.469 1.15-1.469.474 0 .812.28.947.7zm2.773-1.469h-.946v4.546h.946V4.976zm.947 4.546h.947V7.634h1.826v-.77h-1.826V5.745h1.96v-.769H9.39v4.546z"/></symbol><symbol viewBox="0 0 16.42 13.45" id="downloadImg" xmlns="http://www.w3.org/2000/svg"><path fill-rule="evenodd" clip-rule="evenodd" d="M.446.99c0-.36.224-.578.597-.578h15.225c.299 0 .598.217.598.579v12.286c0 .29-.3.579-.598.579H1.043a.58.58 0 01-.597-.579V.991zm1.12.506v11.276h14.18V1.495H1.566zM4.253 9.88a.73.73 0 01-.523-1.228l1.045-1.229c.299-.289.746-.361 1.045-.144L7.238 8.29c.298.217.746.145 1.045-.072l2.239-2.457c.373-.362.895-.29 1.194.072l2.09 2.891c.298.506-.075 1.156-.672 1.156H4.253zm3.582-5.13c0 .578-.597 1.012-1.343 1.012-.672 0-1.27-.434-1.27-1.012 0-.578.598-1.012 1.27-1.012.746 0 1.343.434 1.343 1.012z"/></symbol><symbol viewBox="0 0 13.73 13.73" id="downloadSmile" xmlns="http://www.w3.org/2000/svg"><path fill-rule="evenodd" clip-rule="evenodd" d="M1.388 7.096A5.89 5.89 0 017.273 1.21c3.18 0 5.818 2.639 5.818 5.886 0 3.179-2.638 5.817-5.818 5.817-3.247 0-5.885-2.638-5.885-5.817zm5.885-6.9c-3.788 0-6.9 3.111-6.9 6.9 0 3.72 3.112 6.832 6.9 6.832 3.72 0 6.832-3.112 6.832-6.832 0-3.789-3.111-6.9-6.832-6.9zM4.635 7.028c.473 0 .88-.338.88-.812a.895.895 0 00-.88-.88.895.895 0 00-.88.88c0 .474.406.812.88.812zm.27 1.759c0 .609.271 1.217.677 1.623a2.199 2.199 0 001.623.677c.677 0 1.218-.203 1.692-.677a2.362 2.362 0 00.676-1.623H4.905zm5.818-2.57c0 .473-.406.81-.88.81-.473 0-.879-.337-.879-.81 0-.474.406-.88.88-.88.473 0 .88.406.88.88z"/></symbol><symbol viewBox="0 0 10.01 11.02" id="expl-icon" xmlns="http://www.w3.org/2000/svg"><path fill-rule="evenodd" clip-rule="evenodd" d="M.034.047C.004.088-.005 1.476.002 5.544l.01 5.442 1.85.01c2.046.011 2.002.016 2.121-.237.075-.16.073-.423-.004-.553-.137-.23-.11-.226-1.628-.224l-1.393.003V1.057h1.378c1.522 0 1.532-.002 1.647-.247.075-.158.074-.433-.002-.56C3.837.008 3.905.016 1.903.004.377-.006.07 0 .034.047zM3.653.4c.042.034.06.09.051.167l-.012.116-1.483.02C1.393.713.706.737.681.754.646.78.637 1.776.637 5.521c0 4.64.001 4.735.069 4.775.044.026.58.041 1.494.041 1.06 0 1.435.012 1.467.047.066.072.051.22-.026.266-.045.027-.649.04-1.715.04H.279V.35h1.655c1.301 0 1.669.01 1.719.051zm3.023 1.98c-.164.113-.232.254-.232.481v.21l.885.96.884.96h-3.11c-2.626 0-3.13.008-3.234.056-.246.113-.343.493-.195.761.14.254.003.244 3.426.244h3.11l-.876.953c-.811.884-.877.966-.895 1.116-.041.337.183.605.505.605.165 0 .178-.01.532-.382.2-.21.85-.91 1.444-1.556C9.745 5.89 10 5.591 10 5.518c0-.073-.263-.38-1.117-1.306A193.192 193.192 0 007.44 2.658c-.32-.335-.332-.343-.5-.342a.564.564 0 00-.263.063zM8.3 4.094L9.62 5.52 8.3 6.945c-1.384 1.497-1.434 1.54-1.524 1.321-.043-.102-.025-.125.983-1.21C8.323 6.45 8.785 5.93 8.785 5.9a.372.372 0 00-.037-.127c-.036-.074-.111-.076-3.362-.076-2.223 0-3.347-.014-3.394-.04-.09-.054-.09-.22 0-.273.047-.028 1.17-.041 3.391-.041 3.608 0 3.439.01 3.389-.21-.012-.051-.458-.56-1.005-1.145-.698-.746-.983-1.077-.983-1.138 0-.102.062-.181.142-.181.031 0 .65.641 1.374 1.425z"/><path fill-rule="evenodd" clip-rule="evenodd" d="M.034.047C.004.088-.005 1.476.002 5.544l.01 5.442 1.85.01c2.046.011 2.002.016 2.121-.237.075-.16.073-.423-.004-.553-.137-.23-.11-.226-1.628-.224l-1.393.003V1.057h1.378c1.522 0 1.532-.002 1.647-.247.075-.158.074-.433-.002-.56C3.837.008 3.905.016 1.903.004.377-.006.07 0 .034.047zM3.653.4c.042.034.06.09.051.167l-.012.116-1.483.02C1.393.713.706.737.681.754.646.78.637 1.776.637 5.521c0 4.64.001 4.735.069 4.775.044.026.58.041 1.494.041 1.06 0 1.435.012 1.467.047.066.072.051.22-.026.266-.045.027-.649.04-1.715.04H.279V.35h1.655c1.301 0 1.669.01 1.719.051zm3.023 1.98c-.164.113-.232.254-.232.481v.21l.885.96.884.96h-3.11c-2.626 0-3.13.008-3.234.056-.246.113-.343.493-.195.761.14.254.003.244 3.426.244h3.11l-.876.953c-.811.884-.877.966-.895 1.116-.041.337.183.605.505.605.165 0 .178-.01.532-.382.2-.21.85-.91 1.444-1.556C9.745 5.89 10 5.591 10 5.518c0-.073-.263-.38-1.117-1.306A193.192 193.192 0 007.44 2.658c-.32-.335-.332-.343-.5-.342a.564.564 0 00-.263.063zM8.3 4.094L9.62 5.52 8.3 6.945c-1.384 1.497-1.434 1.54-1.524 1.321-.043-.102-.025-.125.983-1.21C8.323 6.45 8.785 5.93 8.785 5.9a.372.372 0 00-.037-.127c-.036-.074-.111-.076-3.362-.076-2.223 0-3.347-.014-3.394-.04-.09-.054-.09-.22 0-.273.047-.028 1.17-.041 3.391-.041 3.608 0 3.439.01 3.389-.21-.012-.051-.458-.56-1.005-1.145-.698-.746-.983-1.077-.983-1.138 0-.102.062-.181.142-.181.031 0 .65.641 1.374 1.425z"/><path d="M.163.283h.568v10.414H.163z"/><path d="M.163.283h.568v10.414H.163z"/><path d="M.353 10.072h3.411v.625H.353zm0-9.789h3.411v.625H.353z"/><path d="M.353.283h3.411v.625H.353zm1.515 4.79h7.769v.833H1.868z"/><path d="M6.606 8.159l2.509-2.757.401.442L7.008 8.6z"/><path d="M7.008 2.366l2.508 2.757-.402.441-2.508-2.757z"/></symbol><symbol viewBox="0 0 1198.5 517.5" id="frameBl" xmlns="http://www.w3.org/2000/svg"><g filter="url(#ifilter0_d_1_24999)"><path d="M1.5 521V18.914L21.57 3.5H1200"/></g><defs><linearGradient id="ipaint0_linear_1_24999" x1="53.928" y1="-22.375" x2="337.517" y2="467.193" gradientUnits="userSpaceOnUse"><stop stop-color="#AF1746"/><stop offset="1" stop-color="#0F141A"/></linearGradient><filter id="ifilter0_d_1_24999" x="0" y="0" filterUnits="userSpaceOnUse" color-interpolation-filters="sRGB"><feFlood flood-opacity="0" result="BackgroundImageFix"/><feColorMatrix in="SourceAlpha" values="0 0 0 0 0 0 0 0 0 0 0 0 0 0 0 0 0 0 127 0" result="hardAlpha"/><feOffset dx="4" dy="2"/><feGaussianBlur stdDeviation="2.5"/><feComposite in2="hardAlpha" operator="out"/><feColorMatrix values="0 0 0 0 0 0 0 0 0 0 0 0 0 0 0 0 0 0 0.58 0"/><feBlend in2="BackgroundImageFix" result="effect1_dropShadow_1_24999"/><feBlend in="SourceGraphic" in2="effect1_dropShadow_1_24999" result="shape"/></filter></defs></symbol><symbol viewBox="0 0 12 12" id="info-icon" xmlns="http://www.w3.org/2000/svg"><path fill-rule="evenodd" clip-rule="evenodd" d="M6 11.333A5.333 5.333 0 106 .667a5.333 5.333 0 000 10.666zM12 6A6 6 0 110 6a6 6 0 0112 0z"/><path fill-rule="evenodd" clip-rule="evenodd" d="M5.664 8.668V4.667h.667v4h-.667zm0-4.668v-.667h.667V4h-.667z"/></symbol><symbol viewBox="0 0 339.06 44.02" id="line_up" xmlns="http://www.w3.org/2000/svg"><mask id="ka" maskUnits="userSpaceOnUse" x="-1" y="0"><path d="M0 0h304v36H0z"/></mask><g mask="url(#ka)"><path d="M11 0h12L-5.845 43.888l-11.217.13L11 0zM34 0h12L17.155 43.888l-11.217.13L34 0zM57 0h12L40.155 43.888l-11.217.13L57 0zM80 0h12L63.155 43.888l-11.217.13L80 0zM103 0h12L86.155 43.888l-11.217.13L103 0zM126 0h12l-28.845 43.889-11.217.13L126 0zM149 0h12l-28.845 43.889-11.217.13L149 0zM172 0h12l-28.845 43.889-11.217.13L172 0zM195 0h12l-28.845 43.889-11.217.13L195 0zM218 0h12l-28.845 43.889-11.217.13L218 0zM241 0h12l-28.845 43.889-11.217.13L241 0zM264 0h12l-28.845 43.889-11.217.13L264 0zM287 0h12l-28.845 43.889-11.217.13L287 0zM310 0h12l-28.845 43.889-11.217.13L310 0z"/></g><defs><linearGradient id="kpaint0_linear_1_31388" x1="20.501" y1="-8.635" x2="-17.096" y2="49.611" gradientUnits="userSpaceOnUse"><stop stop-color="#680F24"/><stop offset="1" stop-color="#0F141A" stop-opacity=".07"/></linearGradient><linearGradient id="kpaint1_linear_1_31388" x1="43.501" y1="-8.635" x2="5.904" y2="49.611" gradientUnits="userSpaceOnUse"><stop stop-color="#680F24"/><stop offset="1" stop-color="#0F141A" stop-opacity=".07"/></linearGradient><linearGradient id="kpaint2_linear_1_31388" x1="66.501" y1="-8.635" x2="28.904" y2="49.611" gradientUnits="userSpaceOnUse"><stop stop-color="#680F24"/><stop offset="1" stop-color="#0F141A" stop-opacity=".07"/></linearGradient><linearGradient id="kpaint3_linear_1_31388" x1="89.501" y1="-8.635" x2="51.904" y2="49.611" gradientUnits="userSpaceOnUse"><stop stop-color="#680F24"/><stop offset="1" stop-color="#0F141A" stop-opacity=".07"/></linearGradient><linearGradient id="kpaint4_linear_1_31388" x1="112.501" y1="-8.635" x2="74.904" y2="49.611" gradientUnits="userSpaceOnUse"><stop stop-color="#680F24"/><stop offset="1" stop-color="#0F141A" stop-opacity=".07"/></linearGradient><linearGradient id="kpaint5_linear_1_31388" x1="135.501" y1="-8.635" x2="97.904" y2="49.611" gradientUnits="userSpaceOnUse"><stop stop-color="#680F24"/><stop offset="1" stop-color="#0F141A" stop-opacity=".07"/></linearGradient><linearGradient id="kpaint6_linear_1_31388" x1="158.501" y1="-8.635" x2="120.904" y2="49.611" gradientUnits="userSpaceOnUse"><stop stop-color="#680F24"/><stop offset="1" stop-color="#0F141A" stop-opacity=".07"/></linearGradient><linearGradient id="kpaint7_linear_1_31388" x1="181.501" y1="-8.635" x2="143.904" y2="49.611" gradientUnits="userSpaceOnUse"><stop stop-color="#680F24"/><stop offset="1" stop-color="#0F141A" stop-opacity=".07"/></linearGradient><linearGradient id="kpaint8_linear_1_31388" x1="204.501" y1="-8.635" x2="166.904" y2="49.611" gradientUnits="userSpaceOnUse"><stop stop-color="#680F24"/><stop offset="1" stop-color="#0F141A" stop-opacity=".07"/></linearGradient><linearGradient id="kpaint9_linear_1_31388" x1="227.501" y1="-8.635" x2="189.904" y2="49.611" gradientUnits="userSpaceOnUse"><stop stop-color="#680F24"/><stop offset="1" stop-color="#0F141A" stop-opacity=".07"/></linearGradient><linearGradient id="kpaint10_linear_1_31388" x1="250.501" y1="-8.635" x2="212.904" y2="49.611" gradientUnits="userSpaceOnUse"><stop stop-color="#680F24"/><stop offset="1" stop-color="#0F141A" stop-opacity=".07"/></linearGradient><linearGradient id="kpaint11_linear_1_31388" x1="273.501" y1="-8.635" x2="235.904" y2="49.611" gradientUnits="userSpaceOnUse"><stop stop-color="#680F24"/><stop offset="1" stop-color="#0F141A" stop-opacity=".07"/></linearGradient><linearGradient id="kpaint12_linear_1_31388" x1="296.501" y1="-8.635" x2="258.904" y2="49.611" gradientUnits="userSpaceOnUse"><stop stop-color="#680F24"/><stop offset="1" stop-color="#0F141A" stop-opacity=".07"/></linearGradient><linearGradient id="kpaint13_linear_1_31388" x1="319.501" y1="-8.635" x2="281.904" y2="49.611" gradientUnits="userSpaceOnUse"><stop stop-color="#680F24"/><stop offset="1" stop-color="#0F141A" stop-opacity=".07"/></linearGradient></defs></symbol><symbol viewBox="0 0 13.28 13.28" id="link-icon" xmlns="http://www.w3.org/2000/svg"><path d="M3.015 4.938L1.713 6.24a3.885 3.885 0 005.494 5.495l1.302-1.303a.819.819 0 00-1.157-1.156l-1.3 1.302A2.25 2.25 0 012.87 7.396l1.301-1.3a.818.818 0 00-1.156-1.158zm4.988-.65l-3.47 3.47a.817.817 0 101.156 1.156l3.47-3.47a.817.817 0 10-1.156-1.156zM6.34 3.926l1.301-1.3a2.25 2.25 0 013.181 3.18l-1.3 1.301a.818.818 0 001.155 1.157l1.302-1.302a3.885 3.885 0 00-5.494-5.494L5.183 2.77A.819.819 0 006.34 3.926z"/></symbol><symbol viewBox="0 0 22.61 22.61" id="menu-icon" xmlns="http://www.w3.org/2000/svg"><path d="M1.615 0C.72 0 0 .72 0 1.615v6.461c0 .895.72 1.615 1.615 1.615h6.461c.895 0 1.615-.72 1.615-1.615v-6.46C9.691.72 8.971 0 8.076 0h-6.46zM14.54 0c-.895 0-1.617.72-1.617 1.615v6.461c0 .895.722 1.615 1.617 1.615H21c.895 0 1.615-.72 1.615-1.615v-6.46C22.615.72 21.895 0 21 0h-6.46zM1.615 12.924c-.895 0-1.615.72-1.615 1.615V21c0 .895.72 1.615 1.615 1.615h6.461c.895 0 1.615-.72 1.615-1.615v-6.46c0-.896-.72-1.616-1.615-1.616h-6.46zm12.924 0c-.895 0-1.617.72-1.617 1.615V21c0 .895.722 1.615 1.617 1.615H21c.895 0 1.615-.72 1.615-1.615v-6.46c0-.896-.72-1.616-1.615-1.616h-6.46z"/></symbol><symbol viewBox="0 0 10.86 10.72" id="search-icon" xmlns="http://www.w3.org/2000/svg"><path d="M8.243 8.5l.406-.405 2.256 2.256-.406.406z"/><path d="M8.48 1.867a4.677 4.677 0 010 6.614 4.677 4.677 0 01-6.613 0 4.677 4.677 0 010-6.614 4.677 4.677 0 016.614 0z"/></symbol><symbol viewBox="0 0 11.03 11.04" id="setting-icon" xmlns="http://www.w3.org/2000/svg"><path d="M10.344 3.886a1.393 1.393 0 01-.598-.244 1.488 1.488 0 01-.437-.493 1.596 1.596 0 01-.098-1.315.75.75 0 00.02-.435.718.718 0 00-.222-.367A5.348 5.348 0 007.396.045a.644.644 0 00-.418-.019.677.677 0 00-.349.243 1.452 1.452 0 01-.5.429 1.371 1.371 0 01-1.257 0A1.452 1.452 0 014.37.269a.677.677 0 00-.35-.243.644.644 0 00-.417.019c-.542.21-1.05.511-1.503.89a.724.724 0 00-.235.376.758.758 0 00.022.45 1.587 1.587 0 01-.1 1.354 1.474 1.474 0 01-.465.497 1.38 1.38 0 01-.626.224.662.662 0 00-.387.185.728.728 0 00-.207.392A5.85 5.85 0 00.07 6.407a.73.73 0 00.202.407.663.663 0 00.395.194c.228.022.447.102.639.232s.352.307.466.516a1.573 1.573 0 01.061 1.385.741.741 0 00-.044.456.71.71 0 00.231.388 5.386 5.386 0 001.599.972.645.645 0 00.54-.038.686.686 0 00.241-.221c.13-.201.306-.366.51-.479a1.358 1.358 0 011.308-.01c.2.107.373.26.507.45a.675.675 0 00.358.26.64.64 0 00.434-.024 5.448 5.448 0 001.466-.925.722.722 0 00.225-.375.754.754 0 00-.027-.442 1.586 1.586 0 01.081-1.346 1.48 1.48 0 01.45-.504c.186-.128.397-.21.617-.237a.665.665 0 00.379-.195.73.73 0 00.197-.394c.059-.323.09-.65.095-.98 0-.347-.03-.693-.092-1.034a.721.721 0 00-.194-.385.657.657 0 00-.37-.192zm-3.01 1.611c0 .383-.108.758-.31 1.076a1.859 1.859 0 01-.822.713 1.743 1.743 0 01-1.06.11 1.805 1.805 0 01-.938-.53 1.972 1.972 0 01-.502-.991 2.037 2.037 0 01.104-1.119c.139-.354.374-.656.675-.869A1.765 1.765 0 015.5 3.561c.486 0 .953.204 1.296.567.344.363.537.856.537 1.37z"/></symbol><symbol viewBox="0 0 12.36 10.98" id="star-icon" xmlns="http://www.w3.org/2000/svg"><path d="M6.182 0l1.46 4.192h4.722l-3.82 2.59 1.458 4.193-3.82-2.591-3.82 2.59 1.458-4.19L0 4.192h4.723z"/></symbol><symbol viewBox="0 0 17 17" id="tags-icon" xmlns="http://www.w3.org/2000/svg"><path d="M9.54 7.792v1.417H8.125V7.792h1.417z"/><path fill-rule="evenodd" clip-rule="evenodd" d="M8.833 17c-7 0-8.5-1.5-8.5-8.5s1.5-8.5 8.5-8.5 8.5 1.5 8.5 8.5-1.5 8.5-8.5 8.5zM6.708 4.958a.708.708 0 111.417 0v1.417H9.54V4.958a.708.708 0 011.417 0v1.417h1.417a.708.708 0 110 1.417h-1.417v1.416h1.417a.708.708 0 110 1.417h-1.417v1.417a.708.708 0 11-1.417 0v-1.417H8.125v1.417a.708.708 0 01-1.417 0v-1.417H5.291a.708.708 0 110-1.417h1.417V7.792H5.291a.708.708 0 110-1.417h1.417V4.958z"/></symbol><symbol viewBox="0 0 7 4" id="triangle-icon" xmlns="http://www.w3.org/2000/svg"><path d="M3.5 4L7 0H0l3.5 4z"/></symbol><symbol viewBox="0 0 10.42 8.61" id="wallet-icon" xmlns="http://www.w3.org/2000/svg"><path d="M9.706 0H2.293C1.464 0 .79.674.79 1.503v5.61c0 .828.674 1.502 1.503 1.502h7.413c.829 0 1.503-.674 1.503-1.502v-5.61C11.209.674 10.535 0 9.706 0zm.902 5.21H8.404a.903.903 0 010-1.804h2.204V5.21zm0-2.405H8.404c-.829 0-1.503.674-1.503 1.503 0 .828.674 1.502 1.503 1.502h2.204v1.303a.903.903 0 01-.902.901H2.293a.903.903 0 01-.902-.901v-5.61c0-.497.405-.902.902-.902h7.413c.497 0 .902.405.902.902v1.302z"/><path d="M8.805 4.007h-.4a.3.3 0 000 .601h.4a.3.3 0 000-.6z"/></symbol></svg>