<?xml version="1.0" encoding="utf-8"?><svg xmlns="http://www.w3.org/2000/svg" xmlns:xlink="http://www.w3.org/1999/xlink"><symbol viewBox="0 0 7.98 10.01" id="adv-icon" xmlns="http://www.w3.org/2000/svg"><path fill-rule="evenodd" clip-rule="evenodd" d="M3.806.077a.318.318 0 01.384 0l2.046 1.567a.285.285 0 01.048.413.316.316 0 01-.432.046L4.305.918v6.44a.3.3 0 01-.307.295.3.3 0 01-.307-.294V.918L2.143 2.103a.316.316 0 01-.431-.046.285.285 0 01.048-.413L3.806.077z"/><path fill-rule="evenodd" clip-rule="evenodd" d="M1.133 4.127a.501.501 0 00-.511.49v4.309c0 .27.229.49.511.49h5.73c.283 0 .512-.22.512-.49v-4.31c0-.27-.23-.49-.512-.49h-1.11a.3.3 0 01-.308-.293.3.3 0 01.307-.294h1.111c.622 0 1.126.482 1.126 1.077v4.31c0 .595-.504 1.078-1.126 1.078h-5.73c-.621 0-1.125-.483-1.125-1.078v-4.31c0-.595.504-1.077 1.125-1.077h1.111a.3.3 0 01.307.294.3.3 0 01-.307.294h-1.11z"/></symbol><symbol viewBox="0 0 16.82 19.9" id="bell-icon" xmlns="http://www.w3.org/2000/svg"><path d="M10.74 17.577c0 .984-.526 1.737-1.378 2.23a2.749 2.749 0 01-2.751 0c-.852-.493-1.377-1.246-1.377-2.23M7.986.396c.751 0 1.356.462 1.356 1.174 0 .448.015.782.297.868 2.394.723 3.93 2.418 3.93 4.618v3.699c0 1.694.692 2.037 1.565 2.685 1.263.938.975 2.889-.475 2.888H1.314c-1.45.001-1.738-1.95-.475-2.887.872-.649 1.566-.992 1.566-2.686V7.056c0-2.2 1.535-3.895 3.93-4.618.28-.086.296-.42.296-.868 0-.712.605-1.174 1.355-1.174z"/></symbol><symbol viewBox="0 0 12 12" id="info-icon" xmlns="http://www.w3.org/2000/svg"><path fill-rule="evenodd" clip-rule="evenodd" d="M6 11.333A5.333 5.333 0 106 .667a5.333 5.333 0 000 10.666zM12 6A6 6 0 110 6a6 6 0 0112 0z"/><path fill-rule="evenodd" clip-rule="evenodd" d="M5.664 8.668V4.667h.667v4h-.667zm0-4.668v-.667h.667V4h-.667z"/></symbol><symbol viewBox="0 0 0 0" id="menu-icon" xmlns="http://www.w3.org/2000/svg"><rect x=".692" y="13.615" rx="1.615"/><rect x=".692" y=".692" rx="1.615"/><rect x="13.615" y=".692" rx="1.615"/><rect x="13.615" y="13.615" rx="1.615"/></symbol><symbol viewBox="0 0 13.23 13.23" id="search-icon" xmlns="http://www.w3.org/2000/svg"><path d="M10.406 10.648l.406-.406 2.256 2.257-.406.406z"/><circle cx="7.337" cy="7.321" r="4.677" transform="rotate(-45 7.337 7.321)"/></symbol><symbol viewBox="0 0 11.03 11.04" id="setting-icon" xmlns="http://www.w3.org/2000/svg"><path d="M10.344 3.886a1.393 1.393 0 01-.598-.244 1.488 1.488 0 01-.437-.493 1.596 1.596 0 01-.098-1.315.75.75 0 00.02-.435.718.718 0 00-.222-.367A5.348 5.348 0 007.396.045a.644.644 0 00-.418-.019.677.677 0 00-.349.243 1.452 1.452 0 01-.5.429 1.371 1.371 0 01-1.257 0A1.452 1.452 0 014.37.269a.677.677 0 00-.35-.243.644.644 0 00-.417.019c-.542.21-1.05.511-1.503.89a.724.724 0 00-.235.376.758.758 0 00.022.45 1.587 1.587 0 01-.1 1.354 1.474 1.474 0 01-.465.497 1.38 1.38 0 01-.626.224.662.662 0 00-.387.185.728.728 0 00-.207.392A5.85 5.85 0 00.07 6.407a.73.73 0 00.202.407.663.663 0 00.395.194c.228.022.447.102.639.232s.352.307.466.516a1.573 1.573 0 01.061 1.385.741.741 0 00-.044.456.71.71 0 00.231.388 5.386 5.386 0 001.599.972.645.645 0 00.54-.038.686.686 0 00.241-.221c.13-.201.306-.366.51-.479a1.358 1.358 0 011.308-.01c.2.107.373.26.507.45a.675.675 0 00.358.26.64.64 0 00.434-.024 5.448 5.448 0 001.466-.925.722.722 0 00.225-.375.754.754 0 00-.027-.442 1.586 1.586 0 01.081-1.346 1.48 1.48 0 01.45-.504c.186-.128.397-.21.617-.237a.665.665 0 00.379-.195.73.73 0 00.197-.394c.059-.323.09-.65.095-.98 0-.347-.03-.693-.092-1.034a.721.721 0 00-.194-.385.657.657 0 00-.37-.192zm-3.01 1.611c0 .383-.108.758-.31 1.076a1.859 1.859 0 01-.822.713 1.743 1.743 0 01-1.06.11 1.805 1.805 0 01-.938-.53 1.972 1.972 0 01-.502-.991 2.037 2.037 0 01.104-1.119c.139-.354.374-.656.675-.869A1.765 1.765 0 015.5 3.561c.486 0 .953.204 1.296.567.344.363.537.856.537 1.37z"/></symbol><symbol viewBox="0 0 12.36 10.98" id="star-icon" xmlns="http://www.w3.org/2000/svg"><path d="M6.5 0l1.46 4.192h4.722l-3.82 2.59 1.459 4.193L6.5 8.384l-3.82 2.59 1.459-4.191-3.82-2.591H5.04L6.5 0z"/></symbol><symbol viewBox="0 0 7 4" id="triangle-icon" xmlns="http://www.w3.org/2000/svg"><path d="M3.5 4L7 0H0l3.5 4z"/></symbol></svg>