<?xml version="1.0" encoding="UTF-8" standalone="no"?>
<svg
   width="5.5183182"
   height="4.0018368"
   viewBox="0 0 5.5183182 4.0018368"
   fill="none"
   version="1.1"
   id="svg4"
   sodipodi:docname="check-icon.svg"
   inkscape:version="1.2.1 (9c6d41e410, 2022-07-14)"
   xmlns:inkscape="http://www.inkscape.org/namespaces/inkscape"
   xmlns:sodipodi="http://sodipodi.sourceforge.net/DTD/sodipodi-0.dtd"
   xmlns="http://www.w3.org/2000/svg"
   xmlns:svg="http://www.w3.org/2000/svg">
  <defs
     id="defs8" />
  <sodipodi:namedview
     id="namedview6"
     pagecolor="#ffffff"
     bordercolor="#000000"
     borderopacity="0.25"
     inkscape:showpageshadow="2"
     inkscape:pageopacity="0.0"
     inkscape:pagecheckerboard="0"
     inkscape:deskcolor="#d1d1d1"
     showgrid="false"
     inkscape:zoom="160.8"
     inkscape:cx="2.7549751"
     inkscape:cy="2.2543532"
     inkscape:window-width="1920"
     inkscape:window-height="991"
     inkscape:window-x="-9"
     inkscape:window-y="-9"
     inkscape:window-maximized="1"
     inkscape:current-layer="svg4" />
  <path
     d="m 5.4014776,0.68569059 -3.19855,3.19852601 c -0.07549,0.07532 -0.17778,0.11762 -0.28442,0.11762 -0.10664,0 -0.20893,-0.0423 -0.28442,-0.11762 l -1.51724501,-1.5172 C 0.04183459,2.2914966 -1.8141118e-4,2.1893166 5.8881694e-7,2.0828766 1.8258882e-4,1.9764366 0.04254759,1.8744066 0.11781359,1.7991366 c 0.075266,-0.07526 0.177296,-0.11763 0.283738,-0.11781 0.106442,-1.8e-4 0.208617,0.04184 0.284139,0.11684 l 1.15011701,1.15015 c 0.02193,0.02193 0.05168,0.03426 0.0827,0.03426 0.03102,0 0.06077,-0.01233 0.0827,-0.03426 l 2.83142,-2.83147401 C 4.9081576,0.04183459 5.0103276,-1.8141118e-4 5.1167676,5.8881694e-7 5.2232076,1.8258882e-4 5.3252376,0.04254659 5.4005076,0.11781259 c 0.07527,0.075266 0.11763,0.177297 0.11781,0.283739 1.8e-4,0.106442 -0.04183,0.208616 -0.11684,0.284139 z"
     fill="#ffffff"
     id="path2" />
</svg>
