<?xml version="1.0" encoding="UTF-8" standalone="no"?>
<svg
   width="11.823028"
   height="11.822712"
   viewBox="0 0 11.823028 11.822712"
   fill="none"
   version="1.1"
   id="svg6"
   sodipodi:docname="chkd-icon.svg"
   inkscape:version="1.2.1 (9c6d41e410, 2022-07-14)"
   xmlns:inkscape="http://www.inkscape.org/namespaces/inkscape"
   xmlns:sodipodi="http://sodipodi.sourceforge.net/DTD/sodipodi-0.dtd"
   xmlns="http://www.w3.org/2000/svg"
   xmlns:svg="http://www.w3.org/2000/svg">
  <defs
     id="defs10" />
  <sodipodi:namedview
     id="namedview8"
     pagecolor="#ffffff"
     bordercolor="#000000"
     borderopacity="0.25"
     inkscape:showpageshadow="2"
     inkscape:pageopacity="0.0"
     inkscape:pagecheckerboard="0"
     inkscape:deskcolor="#d1d1d1"
     showgrid="false"
     inkscape:zoom="61.846154"
     inkscape:cx="5.869403"
     inkscape:cy="1.6573383"
     inkscape:window-width="1920"
     inkscape:window-height="991"
     inkscape:window-x="-9"
     inkscape:window-y="-9"
     inkscape:window-maximized="1"
     inkscape:current-layer="svg6" />
  <path
     d="m 10.751228,4.172492 c -0.1471,-0.14818 -0.2301,-0.34829 -0.2309,-0.55713 v -0.70231 c -6e-4,-0.42735 -0.1706,-0.83702 -0.4728,-1.1392 -0.3022,-0.30218 -0.71187,-0.4722 -1.13921,-0.47278 h -0.70122 c -0.2085,-6.5e-4 -0.40839,-0.08321 -0.55657,-0.22989 L 7.051048,0.471162 C 6.748558,0.169442 6.338748,0 5.911508,0 5.484258,0 5.074458,0.169442 4.771958,0.471162 l -0.59892,0.60002 c -0.14818,0.14716 -0.34829,0.23013 -0.55712,0.23099 h -0.70232 c -0.42715,5.8e-4 -0.83666,0.17045 -1.13881,0.47239 -0.30214,0.30194 -0.47229,0.71133 -0.47316,1.13849 v 0.70231 c -6.6e-4,0.2085 -0.08322,0.40839 -0.22989,0.55658 l -0.60058,0.59947 C 0.169441,5.073902 0,5.483712 0,5.910952 c 0,0.42725 0.169441,0.83706 0.471158,1.13955 l 0.60058,0.59892 c 0.14716,0.14818 0.23013,0.34829 0.23099,0.55712 v 0.70232 c 5.8e-4,0.42735 0.1706,0.83705 0.47277,1.13915 0.30218,0.3022 0.71186,0.4722 1.1392,0.4728 h 0.70122 c 0.20857,8e-4 0.40847,0.0836 0.55657,0.2305 l 0.59947,0.6 c 0.30242,0.3018 0.71226,0.4714 1.13955,0.4714 0.42729,0 0.83712,-0.1696 1.13954,-0.4714 l 0.59893,-0.5995 c 0.14817,-0.1471 0.34829,-0.2301 0.55712,-0.231 h 0.70232 c 0.42734,-6e-4 0.83701,-0.1706 1.13921,-0.4728 0.3022,-0.3021 0.4722,-0.7118 0.4728,-1.13915 v -0.70232 c 7e-4,-0.20869 0.0837,-0.40866 0.2309,-0.55657 l 0.5995,-0.59947 c 0.3017,-0.30249 0.4712,-0.7123 0.4712,-1.13955 0,-0.42724 -0.1695,-0.83705 -0.4712,-1.13954 z"
     fill="#d61446"
     id="path2" />
  <path
     d="m 5.360538,7.423502 c -0.05418,1.3e-4 -0.10784,-0.01049 -0.15788,-0.03126 -0.05004,-0.02077 -0.09545,-0.05127 -0.13361,-0.08973 l -1.09994,-1.09995 c -0.07286,-0.07819 -0.11253,-0.18161 -0.11065,-0.28847 0.00189,-0.10686 0.04518,-0.20882 0.12075,-0.2844 0.07558,-0.07557 0.17753,-0.11886 0.28439,-0.12074 0.10687,-0.00189 0.21029,0.03778 0.28848,0.11064 l 0.80846,0.80791 1.90841,-1.90786 c 0.07819,-0.07286 0.18161,-0.11253 0.28847,-0.11064 0.10686,0.00188 0.20882,0.04517 0.28439,0.12075 0.07558,0.07557 0.11887,0.17753 0.12075,0.28439 0.00189,0.10686 -0.03778,0.21028 -0.11064,0.28847 l -2.19989,2.1999 c -0.03816,0.03846 -0.08357,0.06896 -0.13361,0.08973 -0.05004,0.02077 -0.1037,0.03139 -0.15788,0.03126 z"
     fill="#ffffff"
     id="path4" />
</svg>
