<svg width="13" height="13" viewBox="0 0 13 13" fill="none" xmlns="http://www.w3.org/2000/svg">
<path d="M11.3899 5.13758C11.2428 4.9894 11.1598 4.78929 11.159 4.58045V3.87814C11.1584 3.45079 10.9884 3.04112 10.6862 2.73894C10.384 2.43676 9.97433 2.26674 9.54699 2.26616H8.84577C8.63727 2.26551 8.43738 2.18295 8.2892 2.03627L7.68972 1.43625C7.38723 1.13453 6.97742 0.965088 6.55018 0.965088C6.12293 0.965088 5.71313 1.13453 5.41063 1.43625L4.81171 2.03627C4.66353 2.18343 4.46342 2.2664 4.25459 2.26726H3.55227C3.12512 2.26784 2.71561 2.43771 2.41346 2.73965C2.11132 3.04159 1.94117 3.45098 1.9403 3.87814V4.58045C1.93964 4.78895 1.85708 4.98884 1.71041 5.13703L1.10983 5.7365C0.808113 6.03899 0.638672 6.4488 0.638672 6.87604C0.638672 7.30329 0.808113 7.7131 1.10983 8.01559L1.71041 8.61451C1.85757 8.76269 1.94054 8.9628 1.9414 9.17163V9.87395C1.94198 10.3013 2.112 10.711 2.41417 11.0131C2.71635 11.3153 3.12603 11.4853 3.55337 11.4859H4.25459C4.46316 11.4867 4.66306 11.5695 4.81116 11.7164L5.41063 12.3164C5.71305 12.6182 6.12289 12.7878 6.55018 12.7878C6.97747 12.7878 7.3873 12.6182 7.68972 12.3164L8.28865 11.7169C8.43682 11.5698 8.63694 11.4868 8.84577 11.4859H9.54809C9.97543 11.4853 10.3851 11.3153 10.6873 11.0131C10.9895 10.711 11.1595 10.3013 11.1601 9.87395V9.17163C11.1608 8.96294 11.2438 8.76297 11.391 8.61506L11.9905 8.01559C12.2922 7.7131 12.4617 7.30329 12.4617 6.87604C12.4617 6.4488 12.2922 6.03899 11.9905 5.7365L11.3899 5.13758Z" fill="#D61446"/>
<path d="M5.99921 8.38859C5.94503 8.38872 5.89137 8.3781 5.84133 8.35733C5.79129 8.33656 5.74588 8.30606 5.70772 8.2676L4.60778 7.16765C4.53492 7.08946 4.49525 6.98604 4.49713 6.87918C4.49902 6.77232 4.54231 6.67036 4.61788 6.59478C4.69346 6.51921 4.79541 6.47592 4.90227 6.47404C5.00914 6.47215 5.11256 6.51182 5.19075 6.58468L5.99921 7.39259L7.90762 5.48473C7.98581 5.41187 8.08923 5.3722 8.19609 5.37409C8.30295 5.37597 8.40491 5.41926 8.48048 5.49484C8.55606 5.57041 8.59935 5.67237 8.60123 5.77923C8.60312 5.88609 8.56345 5.98951 8.49059 6.0677L6.2907 8.2676C6.25254 8.30606 6.20713 8.33656 6.15709 8.35733C6.10705 8.3781 6.05339 8.38872 5.99921 8.38859Z" fill="white"/>
</svg>
