<?xml version="1.0" encoding="UTF-8" standalone="no"?>
<svg
   fill="currentColor"
   height="19.999992"
   width="20"
   viewBox="0 0 20 19.999992"
   class="sc-aef7b723-0 fKbUaI"
   version="1.1"
   id="svg4"
   sodipodi:docname="close-icon.svg"
   inkscape:version="1.2.1 (9c6d41e410, 2022-07-14)"
   xmlns:inkscape="http://www.inkscape.org/namespaces/inkscape"
   xmlns:sodipodi="http://sodipodi.sourceforge.net/DTD/sodipodi-0.dtd"
   xmlns="http://www.w3.org/2000/svg"
   xmlns:svg="http://www.w3.org/2000/svg">
  <defs
     id="defs8" />
  <sodipodi:namedview
     id="namedview6"
     pagecolor="#ffffff"
     bordercolor="#000000"
     borderopacity="0.25"
     inkscape:showpageshadow="2"
     inkscape:pageopacity="0.0"
     inkscape:pagecheckerboard="0"
     inkscape:deskcolor="#d1d1d1"
     showgrid="false"
     inkscape:zoom="33.5"
     inkscape:cx="10"
     inkscape:cy="10.014925"
     inkscape:window-width="1920"
     inkscape:window-height="991"
     inkscape:window-x="-9"
     inkscape:window-y="-9"
     inkscape:window-maximized="1"
     inkscape:current-layer="svg4" />
  <path
     d="M 10.000001,0 C 8.0222009,0 6.0887909,0.58649 4.4443009,1.6853 c -1.64449,1.09882 -2.92621,2.6606 -3.68309003,4.48786 -0.75688,1.82724 -0.95491,3.83794 -0.56906,5.77774 0.38585,1.9398 1.33826003,3.7216 2.73679003,5.1202 1.39852,1.3985 3.18035,2.3509 5.12016,2.7367 1.9398,0.3859 3.9505001,0.1879 5.7777001,-0.569 1.8273,-0.7569 3.3891,-2.0386 4.4879,-3.6831 1.0988,-1.6445 1.6853,-3.5779 1.6853,-5.5557 -0.0077,-2.6498 -1.0637,-5.18887 -2.9374,-7.06257 -1.8737,-1.8737 -4.4128,-2.92974 -7.0626,-2.93743 z m 3.5358,12.3575 c 0.3254,0.3254 0.3254,0.8529 0,1.1783 -0.3254,0.3254 -0.8529,0.3254 -1.1783,0 l -2.3575,-2.3575 -2.3575001,2.3575 c -0.32538,0.3254 -0.85294,0.3254 -1.17833,0 -0.32539,-0.3254 -0.32539,-0.8529 0,-1.1783 L 8.8217009,10 6.4641709,7.6425 c -0.32539,-0.32539 -0.32539,-0.85295 0,-1.17833 0.32539,-0.32539 0.85294,-0.32539 1.17833,0 l 2.3575001,2.35753 2.3575,-2.35753 c 0.3254,-0.32539 0.8529,-0.32539 1.1783,0 0.3254,0.32538 0.3254,0.85294 0,1.17833 L 11.178301,10 Z"
     id="path2" />
</svg>
