<svg width="8" height="10" viewBox="0 0 8 10" fill="none" xmlns="http://www.w3.org/2000/svg">
<path d="M4.00059 4.5C5.32608 4.5 6.4006 3.49264 6.4006 2.25C6.4006 1.00736 5.32608 0 4.00059 0C2.67511 0 1.60059 1.00736 1.60059 2.25C1.60059 3.49264 2.67511 4.5 4.00059 4.5Z" fill="white"/>
<path d="M7.98401 9.3785L7.11948 6.136C7.03288 5.81145 6.83304 5.52336 6.55173 5.31753C6.27042 5.11169 5.92379 4.99993 5.56694 5H2.43306C2.07621 4.99993 1.72958 5.11169 1.44827 5.31753C1.16696 5.52336 0.967118 5.81145 0.880522 6.136L0.015986 9.3785C-0.003714 9.45223 -0.00522707 9.52919 0.0115617 9.60355C0.0283505 9.6779 0.0629992 9.74769 0.112875 9.80761C0.16275 9.86753 0.226539 9.916 0.299394 9.94933C0.372249 9.98267 0.452251 10 0.533321 10H7.46668C7.54775 10 7.62775 9.98267 7.70061 9.94933C7.77346 9.916 7.83725 9.86753 7.88713 9.80761C7.937 9.74769 7.97165 9.6779 7.98844 9.60355C8.00523 9.52919 8.00371 9.45223 7.98401 9.3785Z" fill="white"/>
</svg>
