<svg width="15" height="17" viewBox="0 0 15 17" fill="none" xmlns="http://www.w3.org/2000/svg">
<path d="M0.683105 15.8734V2.14103C0.683105 1.82502 0.93928 1.56885 1.25529 1.56885H13.8433C14.1593 1.56885 14.4155 1.82502 14.4155 2.14103V11.8681C14.4155 12.1842 14.1593 12.4403 13.8433 12.4403H4.26547L0.683105 15.8734Z" fill="#6B6B6B"/>
<path d="M0.683105 15.8734V2.14103C0.683105 1.82502 0.93928 1.56885 1.25529 1.56885H13.8433C14.1593 1.56885 14.4155 1.82502 14.4155 2.14103V11.8681C14.4155 12.1842 14.1593 12.4403 13.8433 12.4403H4.26547L0.683105 15.8734Z" stroke="white" stroke-width="0.68662"/>
<path d="M0.683105 15.8734V2.14103C0.683105 1.82502 0.93928 1.56885 1.25529 1.56885H13.8433C14.1593 1.56885 14.4155 1.82502 14.4155 2.14103V11.8681C14.4155 12.1842 14.1593 12.4403 13.8433 12.4403H4.26547L0.683105 15.8734Z" stroke="#6B6B6B" stroke-width="0.68662"/>
<path d="M4.69189 6.14697H11.5581" stroke="white" stroke-width="0.572183"/>
<path d="M4.69189 6.14697H11.5581" stroke="black" stroke-width="0.572183"/>
<path d="M4.69189 8.43408H9.26936" stroke="white" stroke-width="0.572183"/>
<path d="M4.69189 8.43408H9.26936" stroke="black" stroke-width="0.572183"/>
</svg>
