<svg width="10" height="11" viewBox="0 0 10 11" fill="none" xmlns="http://www.w3.org/2000/svg">
<path d="M9.12079 2.08369L7.58259 0.362528C7.48068 0.248584 7.35589 0.157405 7.21636 0.0949393C7.07683 0.0324733 6.92571 0.00012352 6.77284 0H1.0842C0.796924 0.000893542 0.521673 0.115408 0.318541 0.318541C0.115408 0.521673 0.000893542 0.796924 0 1.0842V9.75776C0.000893542 10.045 0.115408 10.3203 0.318541 10.5234C0.521673 10.7265 0.796924 10.8411 1.0842 10.842H8.31443C8.6017 10.8411 8.87695 10.7265 9.08008 10.5234C9.28321 10.3203 9.39773 10.045 9.39862 9.75776V2.80536C9.39948 2.53853 9.30036 2.28106 9.12079 2.08369V2.08369ZM8.55159 2.53092H6.85754V0.741996C6.92491 0.758009 6.98613 0.793334 7.03372 0.84364L8.55159 2.53092ZM8.56853 10.0119C8.50146 10.0801 8.41012 10.1191 8.31443 10.1203H1.0842C0.988503 10.1191 0.897159 10.0801 0.830087 10.0119C0.795793 9.97921 0.768727 9.93972 0.750636 9.89595C0.732545 9.85218 0.72383 9.8051 0.725056 9.75776V1.0842C0.725922 0.988899 0.763933 0.8977 0.831003 0.829997C0.898074 0.762294 0.988911 0.723429 1.0842 0.721668H6.14603V2.89006C6.14559 2.93751 6.15455 2.98457 6.17239 3.02854C6.19024 3.0725 6.21662 3.11249 6.25002 3.1462C6.28341 3.17991 6.32316 3.20667 6.36695 3.22493C6.41075 3.24319 6.45772 3.25259 6.50517 3.25259H8.67356V9.75776C8.67479 9.8051 8.66608 9.85218 8.64799 9.89595C8.62989 9.93972 8.60283 9.97921 8.56853 10.0119V10.0119Z" fill="white"/>
<path d="M6.14594 8.31104H5.06175C4.9656 8.31104 4.87339 8.34923 4.8054 8.41722C4.73741 8.4852 4.69922 8.57741 4.69922 8.67356C4.69922 8.76971 4.73741 8.86192 4.8054 8.92991C4.87339 8.9979 4.9656 9.03609 5.06175 9.03609H6.14594C6.24209 9.03609 6.3343 8.9979 6.40229 8.92991C6.47028 8.86192 6.50847 8.76971 6.50847 8.67356C6.50847 8.57741 6.47028 8.4852 6.40229 8.41722C6.3343 8.34923 6.24209 8.31104 6.14594 8.31104V8.31104Z" fill="white"/>
<path d="M7.22972 9.03609C7.42993 9.03609 7.59224 8.87378 7.59224 8.67356C7.59224 8.47334 7.42993 8.31104 7.22972 8.31104C7.0295 8.31104 6.86719 8.47334 6.86719 8.67356C6.86719 8.87378 7.0295 9.03609 7.22972 9.03609Z" fill="white"/>
<path d="M2.16834 3.25255H3.97759C4.06726 3.24385 4.15048 3.20208 4.21102 3.13537C4.27157 3.06867 4.30512 2.98181 4.30512 2.89172C4.30512 2.80163 4.27157 2.71477 4.21102 2.64806C4.15048 2.58136 4.06726 2.53958 3.97759 2.53088H2.16834C2.07868 2.53958 1.99546 2.58136 1.93491 2.64806C1.87436 2.71477 1.84082 2.80163 1.84082 2.89172C1.84082 2.98181 1.87436 3.06867 1.93491 3.13537C1.99546 3.20208 2.07868 3.24385 2.16834 3.25255Z" fill="white"/>
<path d="M2.16834 5.05846H7.23018C7.31985 5.04976 7.40306 5.00799 7.46361 4.94128C7.52416 4.87457 7.5577 4.78771 7.5577 4.69763C7.5577 4.60754 7.52416 4.52068 7.46361 4.45397C7.40306 4.38726 7.31985 4.34549 7.23018 4.33679H2.16834C2.07868 4.34549 1.99546 4.38726 1.93491 4.45397C1.87436 4.52068 1.84082 4.60754 1.84082 4.69763C1.84082 4.78771 1.87436 4.87457 1.93491 4.94128C1.99546 5.00799 2.07868 5.04976 2.16834 5.05846V5.05846Z" fill="white"/>
<path d="M7.58917 6.50523C7.58962 6.45778 7.58066 6.41072 7.56281 6.36675C7.54496 6.32279 7.51858 6.28279 7.48519 6.24909C7.45179 6.21538 7.41205 6.18862 7.36825 6.17036C7.32446 6.1521 7.27748 6.1427 7.23003 6.1427H2.16819C2.07204 6.1427 1.97983 6.1809 1.91185 6.24888C1.84386 6.31687 1.80566 6.40908 1.80566 6.50523C1.80566 6.60138 1.84386 6.69359 1.91185 6.76157C1.97983 6.82956 2.07204 6.86776 2.16819 6.86776H7.23003C7.27748 6.86776 7.32446 6.85836 7.36825 6.8401C7.41205 6.82184 7.45179 6.79508 7.48519 6.76137C7.51858 6.72766 7.54496 6.68767 7.56281 6.64371C7.58066 6.59974 7.58962 6.55268 7.58917 6.50523V6.50523Z" fill="white"/>
</svg>
