<svg width="10" height="10" viewBox="0 0 10 10" fill="none" xmlns="http://www.w3.org/2000/svg">
<path d="M3.64586 8.12489C2.6696 8.12489 1.875 7.33029 1.875 6.35403V2.08325H1.14586C0.513763 2.08325 0 2.59694 0 3.22903V8.85403C0 9.48613 0.513763 9.99989 1.14586 9.99989H6.35414C6.98624 9.99989 7.5 9.48613 7.5 8.85403V8.12489H3.64586Z" fill="white"/>
<path d="M9.16664 1.14586C9.16664 0.512924 8.65372 0 8.02086 0H3.64586C3.01292 0 2.5 0.512924 2.5 1.14586V6.35414C2.5 6.98708 3.01292 7.5 3.64586 7.5H8.02086C8.65372 7.5 9.16664 6.98708 9.16664 6.35414V1.14586Z" fill="#938E8E"/>
</svg>
