<?xml version="1.0" encoding="UTF-8" standalone="no"?>
<svg
   width="8.0000019"
   height="6.1927748"
   viewBox="0 0 8.0000019 6.1927748"
   fill="none"
   version="1.1"
   id="svg4"
   sodipodi:docname="discord-icon.svg"
   inkscape:version="1.2.1 (9c6d41e410, 2022-07-14)"
   xmlns:inkscape="http://www.inkscape.org/namespaces/inkscape"
   xmlns:sodipodi="http://sodipodi.sourceforge.net/DTD/sodipodi-0.dtd"
   xmlns="http://www.w3.org/2000/svg"
   xmlns:svg="http://www.w3.org/2000/svg">
  <defs
     id="defs8" />
  <sodipodi:namedview
     id="namedview6"
     pagecolor="#ffffff"
     bordercolor="#000000"
     borderopacity="0.25"
     inkscape:showpageshadow="2"
     inkscape:pageopacity="0.0"
     inkscape:pagecheckerboard="0"
     inkscape:deskcolor="#d1d1d1"
     showgrid="false"
     inkscape:zoom="100.5"
     inkscape:cx="4"
     inkscape:cy="2.7910448"
     inkscape:window-width="1920"
     inkscape:window-height="991"
     inkscape:window-x="-9"
     inkscape:window-y="-9"
     inkscape:window-maximized="1"
     inkscape:current-layer="svg4" />
  <path
     d="M 6.7767601,0.518645 C 6.2589101,0.276355 5.7051901,0.100266 5.1263001,0 c -0.0711,0.128535 -0.15416,0.301425 -0.21142,0.438955 -0.61538,-0.09255 -1.2251,-0.09255 -1.82916,0 -0.05726,-0.13753 -0.1422,-0.31042 -0.21393,-0.438955 -0.57952,0.100266 -1.13387,0.276995 -1.65173,0.519925 -1.044512,1.5784 -1.327664,3.1176 -1.1860878,4.63494 0.6927788,0.51735 1.3641678,0.83163 2.0242178,1.03728 0.16297,-0.2243 0.30832,-0.46273 0.43354,-0.71401 -0.23848,-0.09062 -0.46689,-0.20244 -0.68271,-0.33226 0.05726,-0.04242 0.11327,-0.08677 0.16737,-0.1324 1.31634,0.61569 2.74658,0.61569 4.04719,0 0.05474,0.04563 0.11074,0.08998 0.16737,0.1324 -0.21646,0.13045 -0.44549,0.24228 -0.68396,0.33291 0.12521,0.25063 0.26993,0.48971 0.43353,0.71399 0.66069,-0.20565 1.3327,-0.51991 2.02548,-1.03791 0.16612,-1.75898 -0.28378,-3.28404 -1.18924,-4.63622 z m -4.1057,3.70307 c -0.39515,0 -0.71921,-0.3689 -0.71921,-0.81812 0,-0.44923 0.31714,-0.81876 0.71921,-0.81876 0.40208,0 0.72613,0.36888 0.71921,0.81876 6.2e-4,0.44922 -0.31713,0.81812 -0.71921,0.81812 z m 2.65785,0 c -0.39515,0 -0.7192,-0.3689 -0.7192,-0.81812 0,-0.44923 0.31712,-0.81876 0.7192,-0.81876 0.40208,0 0.72613,0.36888 0.71921,0.81876 0,0.44922 -0.31713,0.81812 -0.71921,0.81812 z"
     fill="#9e9e9e"
     id="path2" />
</svg>
