<?xml version="1.0" encoding="UTF-8" standalone="no"?>
<svg
   width="12.166903"
   height="2.8335924"
   viewBox="0 0 12.166903 2.8335924"
   fill="none"
   version="1.1"
   id="svg4"
   sodipodi:docname="dots-icon.svg"
   inkscape:version="1.2.1 (9c6d41e410, 2022-07-14)"
   xmlns:inkscape="http://www.inkscape.org/namespaces/inkscape"
   xmlns:sodipodi="http://sodipodi.sourceforge.net/DTD/sodipodi-0.dtd"
   xmlns="http://www.w3.org/2000/svg"
   xmlns:svg="http://www.w3.org/2000/svg">
  <defs
     id="defs8" />
  <sodipodi:namedview
     id="namedview6"
     pagecolor="#ffffff"
     bordercolor="#000000"
     borderopacity="0.25"
     inkscape:showpageshadow="2"
     inkscape:pageopacity="0.0"
     inkscape:pagecheckerboard="0"
     inkscape:deskcolor="#d1d1d1"
     showgrid="false"
     inkscape:zoom="93.571429"
     inkscape:cx="5.8244275"
     inkscape:cy="1.4160305"
     inkscape:window-width="1920"
     inkscape:window-height="991"
     inkscape:window-x="-9"
     inkscape:window-y="-9"
     inkscape:window-maximized="1"
     inkscape:current-layer="svg4" />
  <path
     d="m 2.0836026,1.4169225 -0.66667,0.66667 c -0.66667005,0 -0.66667005,-0.66667 -0.66667005,-0.66667 0,-0.66665997 0,-0.66665997 0.66667005,-0.66665997 0,0 0.66667,0 0.66667,0.66665997 z m 4.66666,0 -0.66666,0.66667 c -0.66667,0 -0.66667,-0.66667 -0.66667,-0.66667 0,-0.66665997 0,-0.66665997 0.66667,-0.66665997 0,0 0.66666,0 0.66666,0.66665997 z m 4.6666404,0 -0.6666,0.66667 c -0.6667,0 -0.6667,-0.66667 -0.6667,-0.66667 0,-0.66665997 0,-0.66665997 0.6667,-0.66665997 0,0 0.6666,0 0.6666,0.66665997 z"
     stroke="#ffffff"
     stroke-width="1.5"
     stroke-linecap="round"
     stroke-linejoin="round"
     id="path2" />
</svg>
