<svg width="16" height="14" viewBox="0 0 16 14" fill="none" xmlns="http://www.w3.org/2000/svg">
<path fill-rule="evenodd" clip-rule="evenodd" d="M0.134766 1.41005C0.134766 1.06039 0.33763 0.850586 0.675739 0.850586H14.4706C14.741 0.850586 15.0115 1.06039 15.0115 1.41005V13.2987C15.0115 13.5785 14.741 13.8582 14.4706 13.8582H0.675739C0.33763 13.8582 0.134766 13.5785 0.134766 13.2987V1.41005ZM1.14909 1.89959V12.8092H13.9972V1.89959H1.14909Z" fill="#6A6A6A"/>
<path d="M5.6709 6.44479H6.61761C6.48236 5.53565 5.73852 4.90625 4.7242 4.90625C3.57463 4.90625 2.62793 5.74545 2.62793 7.28399C2.62793 8.68266 3.50701 9.59179 4.7242 9.59179C5.87377 9.59179 6.68523 8.89246 6.68523 7.63366V7.07419H4.79182V7.84346H5.73852C5.73852 8.40292 5.3328 8.75259 4.7242 8.75259C4.04798 8.75259 3.57463 8.19312 3.57463 7.21405C3.57463 6.30492 4.04798 5.74545 4.7242 5.74545C5.19755 5.74545 5.53566 6.02519 5.6709 6.44479ZM8.44339 4.97618H7.49669V9.52186H8.44339V4.97618ZM9.39009 9.52186H10.3368V7.63366H12.1626V6.86439H10.3368V5.74545H12.2978V4.97618H9.39009V9.52186Z" fill="#6A6A6A"/>
</svg>
