<svg width="15" height="14" viewBox="0 0 15 14" fill="none" xmlns="http://www.w3.org/2000/svg">
<path fill-rule="evenodd" clip-rule="evenodd" d="M1.38776 7.09558C1.38776 3.84851 4.026 1.21027 7.27307 1.21027C10.4525 1.21027 13.0907 3.84851 13.0907 7.09558C13.0907 10.275 10.4525 12.9132 7.27307 12.9132C4.026 12.9132 1.38776 10.275 1.38776 7.09558ZM7.27307 0.195557C3.48482 0.195557 0.373047 3.30733 0.373047 7.09558C0.373047 10.8162 3.48482 13.928 7.27307 13.928C10.9937 13.928 14.1054 10.8162 14.1054 7.09558C14.1054 3.30733 10.9937 0.195557 7.27307 0.195557ZM4.63482 7.02793C5.10836 7.02793 5.51424 6.68969 5.51424 6.21616C5.51424 5.74263 5.10836 5.33675 4.63482 5.33675C4.16129 5.33675 3.75541 5.74263 3.75541 6.21616C3.75541 6.68969 4.16129 7.02793 4.63482 7.02793ZM4.90541 8.78676C4.90541 9.39558 5.176 10.0044 5.58189 10.4103C6.05542 10.8838 6.59659 11.0868 7.20542 11.0868C7.88189 11.0868 8.42307 10.8838 8.8966 10.4103C9.30248 10.0044 9.57307 9.39558 9.57307 8.78676H4.90541ZM10.7231 6.21616C10.7231 6.68969 10.3172 7.02793 9.84366 7.02793C9.37013 7.02793 8.96425 6.68969 8.96425 6.21616C8.96425 5.74263 9.37013 5.33675 9.84366 5.33675C10.3172 5.33675 10.7231 5.74263 10.7231 6.21616Z" fill="#6A6A6A"/>
</svg>
