<svg width="17" height="14" viewBox="0 0 17 14" fill="none" xmlns="http://www.w3.org/2000/svg">
<path fill-rule="evenodd" clip-rule="evenodd" d="M0.446289 0.99056C0.446289 0.629181 0.670187 0.412354 1.04335 0.412354H16.2684C16.5669 0.412354 16.8655 0.629181 16.8655 0.99056V13.2774C16.8655 13.5665 16.5669 13.8556 16.2684 13.8556H1.04335C0.670187 13.8556 0.446289 13.5665 0.446289 13.2774V0.99056ZM1.56578 1.49649V12.7715H15.746V1.49649H1.56578ZM4.25255 9.88048C3.65549 9.88048 3.28233 9.15772 3.73012 8.65179L4.77498 7.4231C5.07351 7.134 5.5213 7.06172 5.81983 7.27855L7.23785 8.29041C7.53638 8.50724 7.98418 8.43496 8.28271 8.21814L10.5217 5.76076C10.8948 5.39938 11.4173 5.47166 11.7158 5.83304L13.8055 8.72407C14.104 9.23 13.7309 9.88048 13.1338 9.88048H4.25255ZM7.83491 4.7489C7.83491 5.32711 7.23785 5.76076 6.49153 5.76076C5.81983 5.76076 5.22277 5.32711 5.22277 4.7489C5.22277 4.17069 5.81983 3.73704 6.49153 3.73704C7.23785 3.73704 7.83491 4.17069 7.83491 4.7489Z" fill="#6A6A6A"/>
</svg>
