<svg width="10" height="11" viewBox="0 0 10 11" fill="none" xmlns="http://www.w3.org/2000/svg">
<path fill-rule="evenodd" clip-rule="evenodd" d="M0.0344164 0.0470663C0.00357472 0.087962 -0.00453762 1.47559 0.00221682 5.54381L0.011294 10.9858L1.86187 10.996C3.9076 11.0072 3.86418 11.0121 3.98312 10.7591C4.05838 10.5989 4.05642 10.3362 3.97897 10.2062C3.84185 9.97593 3.86829 9.97958 2.35108 9.98218L0.958345 9.98454V5.52069V1.0568H2.33604C3.85814 1.0568 3.86801 1.05534 3.98312 0.810401C4.05763 0.651812 4.05656 0.376749 3.9809 0.249697C3.83681 0.00778295 3.9046 0.0158052 1.90347 0.00357575C0.376999 -0.00578308 0.0688676 0.00141243 0.0344164 0.0470663ZM3.65279 0.400068C3.69504 0.434082 3.71226 0.489999 3.70429 0.56719L3.69228 0.683232L2.20917 0.702893C1.39345 0.713707 0.705965 0.736868 0.681377 0.754367C0.646033 0.779533 0.636705 1.77629 0.636705 5.52089C0.636705 10.1617 0.638063 10.2564 0.705822 10.2963C0.750173 10.3224 1.28592 10.337 2.19966 10.337C3.26014 10.337 3.63535 10.3491 3.66727 10.3842C3.73292 10.4564 3.7183 10.6047 3.64104 10.6502C3.59626 10.6765 2.99211 10.6909 1.92562 10.6909H0.279327V5.51994V0.348987H1.93431C3.23538 0.348987 3.60287 0.359919 3.65279 0.400068ZM6.67639 2.37879C6.51185 2.4922 6.44409 2.63258 6.44409 2.85999V3.0706L7.32864 4.02984L8.21322 4.98908H5.10282C2.47666 4.98908 1.97326 4.99789 1.8693 5.04571C1.62307 5.15892 1.5255 5.53937 1.67403 5.80739C1.8143 6.06055 1.67703 6.0508 5.1005 6.0508H8.20854L7.33282 7.00438C6.52157 7.88781 6.45571 7.96983 6.43762 8.11961C6.39699 8.45665 6.62096 8.72475 6.94321 8.72475C7.10821 8.72475 7.12079 8.71575 7.47506 8.34281C7.67458 8.13275 8.32436 7.43264 8.91893 6.78708C9.74469 5.89048 10 5.59076 10 5.51809C10 5.44535 9.73736 5.13812 8.88319 4.21167C8.26897 3.54546 7.61894 2.84622 7.43875 2.65775C7.11893 2.32327 7.10699 2.31517 6.93842 2.31619C6.84343 2.31674 6.72553 2.34494 6.67639 2.37879ZM8.30049 4.09429L9.61857 5.51955L8.29967 6.9452C6.91476 8.44222 6.86515 8.48516 6.77452 8.26637C6.73207 8.16381 6.75044 8.1412 7.7581 7.05672C8.32283 6.4489 8.78492 5.92851 8.78492 5.90031C8.78492 5.87208 8.76826 5.81478 8.74793 5.77295C8.71176 5.69859 8.63668 5.6969 5.38622 5.6969C3.16276 5.6969 2.03863 5.68341 1.99238 5.6562C1.90243 5.60323 1.90243 5.43666 1.99238 5.38369C2.03863 5.35648 3.16179 5.34299 5.38311 5.34299C8.99102 5.34299 8.82198 5.35345 8.77173 5.13324C8.75997 5.08165 8.31396 4.57328 7.76707 3.98816C7.0694 3.24166 6.7836 2.91079 6.7836 2.84965C6.7836 2.74843 6.84614 2.66904 6.92591 2.66904C6.957 2.66904 7.57555 3.31039 8.30049 4.09429Z" fill="white"/>
<path fill-rule="evenodd" clip-rule="evenodd" d="M0.0344164 0.0470663C0.00357472 0.087962 -0.00453762 1.47559 0.00221682 5.54381L0.011294 10.9858L1.86187 10.996C3.9076 11.0072 3.86418 11.0121 3.98312 10.7591C4.05838 10.5989 4.05642 10.3362 3.97897 10.2062C3.84185 9.97593 3.86829 9.97958 2.35108 9.98218L0.958345 9.98454V5.52069V1.0568H2.33604C3.85814 1.0568 3.86801 1.05534 3.98312 0.810401C4.05763 0.651812 4.05656 0.376749 3.9809 0.249697C3.83681 0.00778295 3.9046 0.0158052 1.90347 0.00357575C0.376999 -0.00578308 0.0688676 0.00141243 0.0344164 0.0470663ZM3.65279 0.400068C3.69504 0.434082 3.71226 0.489999 3.70429 0.56719L3.69228 0.683232L2.20917 0.702893C1.39345 0.713707 0.705965 0.736868 0.681377 0.754367C0.646033 0.779533 0.636705 1.77629 0.636705 5.52089C0.636705 10.1617 0.638063 10.2564 0.705822 10.2963C0.750173 10.3224 1.28592 10.337 2.19966 10.337C3.26014 10.337 3.63535 10.3491 3.66727 10.3842C3.73292 10.4564 3.7183 10.6047 3.64104 10.6502C3.59626 10.6765 2.99211 10.6909 1.92562 10.6909H0.279327V5.51994V0.348987H1.93431C3.23538 0.348987 3.60287 0.359919 3.65279 0.400068ZM6.67639 2.37879C6.51185 2.4922 6.44409 2.63258 6.44409 2.85999V3.0706L7.32864 4.02984L8.21322 4.98908H5.10282C2.47666 4.98908 1.97326 4.99789 1.8693 5.04571C1.62307 5.15892 1.5255 5.53937 1.67403 5.80739C1.8143 6.06055 1.67703 6.0508 5.1005 6.0508H8.20854L7.33282 7.00438C6.52157 7.88781 6.45571 7.96983 6.43762 8.11961C6.39699 8.45665 6.62096 8.72475 6.94321 8.72475C7.10821 8.72475 7.12079 8.71575 7.47506 8.34281C7.67458 8.13275 8.32436 7.43264 8.91893 6.78708C9.74469 5.89048 10 5.59076 10 5.51809C10 5.44535 9.73736 5.13812 8.88319 4.21167C8.26897 3.54546 7.61894 2.84622 7.43875 2.65775C7.11893 2.32327 7.10699 2.31517 6.93842 2.31619C6.84343 2.31674 6.72553 2.34494 6.67639 2.37879ZM8.30049 4.09429L9.61857 5.51955L8.29967 6.9452C6.91476 8.44222 6.86515 8.48516 6.77452 8.26637C6.73207 8.16381 6.75044 8.1412 7.7581 7.05672C8.32283 6.4489 8.78492 5.92851 8.78492 5.90031C8.78492 5.87208 8.76826 5.81478 8.74793 5.77295C8.71176 5.69859 8.63668 5.6969 5.38622 5.6969C3.16276 5.6969 2.03863 5.68341 1.99238 5.6562C1.90243 5.60323 1.90243 5.43666 1.99238 5.38369C2.03863 5.35648 3.16179 5.34299 5.38311 5.34299C8.99102 5.34299 8.82198 5.35345 8.77173 5.13324C8.75997 5.08165 8.31396 4.57328 7.76707 3.98816C7.0694 3.24166 6.7836 2.91079 6.7836 2.84965C6.7836 2.74843 6.84614 2.66904 6.92591 2.66904C6.957 2.66904 7.57555 3.31039 8.30049 4.09429Z" fill="white"/>
<rect x="0.163086" y="0.283325" width="0.56847" height="10.4141" fill="white"/>
<rect x="0.163086" y="0.283325" width="0.56847" height="10.4141" fill="white"/>
<rect x="0.352539" y="10.0723" width="3.41082" height="0.624848" fill="white"/>
<rect x="0.352539" y="0.283325" width="3.41082" height="0.624848" fill="white"/>
<rect x="0.352539" y="0.283325" width="3.41082" height="0.624848" fill="white"/>
<rect x="1.86816" y="5.073" width="7.76909" height="0.833131" fill="white"/>
<rect width="3.72711" height="0.597325" transform="matrix(0.672949 -0.739689 0.672949 0.739689 6.60645 8.15881)" fill="white"/>
<rect width="3.72711" height="0.597325" transform="matrix(0.672949 0.739689 -0.672949 0.739689 7.00781 2.36572)" fill="white"/>
</svg>
