<?xml version="1.0" encoding="UTF-8" standalone="no"?>
<svg
   width="8.4000034"
   height="5.6999998"
   viewBox="0 0 8.4000034 5.6999998"
   fill="none"
   version="1.1"
   id="svg4"
   sodipodi:docname="eye-icon.svg"
   inkscape:version="1.2.1 (9c6d41e410, 2022-07-14)"
   xmlns:inkscape="http://www.inkscape.org/namespaces/inkscape"
   xmlns:sodipodi="http://sodipodi.sourceforge.net/DTD/sodipodi-0.dtd"
   xmlns="http://www.w3.org/2000/svg"
   xmlns:svg="http://www.w3.org/2000/svg">
  <defs
     id="defs8" />
  <sodipodi:namedview
     id="namedview6"
     pagecolor="#ffffff"
     bordercolor="#000000"
     borderopacity="0.25"
     inkscape:showpageshadow="2"
     inkscape:pageopacity="0.0"
     inkscape:pagecheckerboard="0"
     inkscape:deskcolor="#d1d1d1"
     showgrid="false"
     inkscape:zoom="131"
     inkscape:cx="4.1641221"
     inkscape:cy="2.851145"
     inkscape:window-width="1920"
     inkscape:window-height="991"
     inkscape:window-x="-9"
     inkscape:window-y="-9"
     inkscape:window-maximized="1"
     inkscape:current-layer="svg4" />
  <path
     d="m 4.200003,0 c -1.9,0 -3.55,1.2 -4.200003,2.85 0.650003,1.7 2.300003,2.85 4.200003,2.85 1.9,0 3.55,-1.2 4.2,-2.85 -0.65,-1.7 -2.3,-2.85 -4.2,-2.85 z m 0,4.75 c -1.05,0 -1.9,-0.85 -1.9,-1.9 0,-1.05 0.85,-1.9 1.9,-1.9 1.05,0 1.9,0.85 1.9,1.9 0,1.05 -0.85,1.9 -1.9,1.9 z m 0,-3.05 c -0.65,0 -1.15,0.5 -1.15,1.15 0,0.65 0.5,1.15 1.15,1.15 0.65,0 1.15,-0.5 1.15,-1.15 0,-0.65 -0.5,-1.15 -1.15,-1.15 z"
     fill="#0f141a"
     id="path2" />
</svg>
