<svg width="304" height="36" viewBox="0 0 304 36" fill="none" xmlns="http://www.w3.org/2000/svg">
<mask id="mask0_1_31388" style="mask-type:alpha" maskUnits="userSpaceOnUse" x="-1" y="0" width="305" height="36">
<rect x="-0.00012207" width="304" height="36" fill="#D9D9D9"/>
</mask>
<g mask="url(#mask0_1_31388)">
<path d="M10.9998 -4.17399e-05L23 -0.00050034L-5.84534 43.8886L-17.0619 44.0198L10.9998 -4.17399e-05Z" fill="url(#paint0_linear_1_31388)"/>
<path d="M33.9998 -4.17399e-05L46 -0.00050034L17.1547 43.8886L5.93808 44.0198L33.9998 -4.17399e-05Z" fill="url(#paint1_linear_1_31388)"/>
<path d="M56.9998 -4.17399e-05L69 -0.00050034L40.1547 43.8886L28.9381 44.0198L56.9998 -4.17399e-05Z" fill="url(#paint2_linear_1_31388)"/>
<path d="M79.9998 -4.17399e-05L92 -0.00050034L63.1547 43.8886L51.9381 44.0198L79.9998 -4.17399e-05Z" fill="url(#paint3_linear_1_31388)"/>
<path d="M103 -4.17399e-05L115 -0.00050034L86.1547 43.8886L74.9381 44.0198L103 -4.17399e-05Z" fill="url(#paint4_linear_1_31388)"/>
<path d="M126 -4.17399e-05L138 -0.00050034L109.155 43.8886L97.9381 44.0198L126 -4.17399e-05Z" fill="url(#paint5_linear_1_31388)"/>
<path d="M149 -4.17399e-05L161 -0.00050034L132.155 43.8886L120.938 44.0198L149 -4.17399e-05Z" fill="url(#paint6_linear_1_31388)"/>
<path d="M172 -4.17399e-05L184 -0.00050034L155.155 43.8886L143.938 44.0198L172 -4.17399e-05Z" fill="url(#paint7_linear_1_31388)"/>
<path d="M195 -4.17399e-05L207 -0.00050034L178.155 43.8886L166.938 44.0198L195 -4.17399e-05Z" fill="url(#paint8_linear_1_31388)"/>
<path d="M218 -4.17399e-05L230 -0.00050034L201.155 43.8886L189.938 44.0198L218 -4.17399e-05Z" fill="url(#paint9_linear_1_31388)"/>
<path d="M241 -4.17399e-05L253 -0.00050034L224.155 43.8886L212.938 44.0198L241 -4.17399e-05Z" fill="url(#paint10_linear_1_31388)"/>
<path d="M264 -4.17399e-05L276 -0.00050034L247.155 43.8886L235.938 44.0198L264 -4.17399e-05Z" fill="url(#paint11_linear_1_31388)"/>
<path d="M287 -4.17399e-05L299 -0.00050034L270.155 43.8886L258.938 44.0198L287 -4.17399e-05Z" fill="url(#paint12_linear_1_31388)"/>
<path d="M310 -4.17399e-05L322 -0.00050034L293.155 43.8886L281.938 44.0198L310 -4.17399e-05Z" fill="url(#paint13_linear_1_31388)"/>
</g>
<defs>
<linearGradient id="paint0_linear_1_31388" x1="20.501" y1="-8.63466" x2="-17.0958" y2="49.6115" gradientUnits="userSpaceOnUse">
<stop stop-color="#680F24"/>
<stop offset="1" stop-color="#0F141A" stop-opacity="0.07"/>
</linearGradient>
<linearGradient id="paint1_linear_1_31388" x1="43.501" y1="-8.63466" x2="5.90418" y2="49.6115" gradientUnits="userSpaceOnUse">
<stop stop-color="#680F24"/>
<stop offset="1" stop-color="#0F141A" stop-opacity="0.07"/>
</linearGradient>
<linearGradient id="paint2_linear_1_31388" x1="66.501" y1="-8.63466" x2="28.9042" y2="49.6115" gradientUnits="userSpaceOnUse">
<stop stop-color="#680F24"/>
<stop offset="1" stop-color="#0F141A" stop-opacity="0.07"/>
</linearGradient>
<linearGradient id="paint3_linear_1_31388" x1="89.501" y1="-8.63466" x2="51.9042" y2="49.6115" gradientUnits="userSpaceOnUse">
<stop stop-color="#680F24"/>
<stop offset="1" stop-color="#0F141A" stop-opacity="0.07"/>
</linearGradient>
<linearGradient id="paint4_linear_1_31388" x1="112.501" y1="-8.63466" x2="74.9042" y2="49.6115" gradientUnits="userSpaceOnUse">
<stop stop-color="#680F24"/>
<stop offset="1" stop-color="#0F141A" stop-opacity="0.07"/>
</linearGradient>
<linearGradient id="paint5_linear_1_31388" x1="135.501" y1="-8.63466" x2="97.9042" y2="49.6115" gradientUnits="userSpaceOnUse">
<stop stop-color="#680F24"/>
<stop offset="1" stop-color="#0F141A" stop-opacity="0.07"/>
</linearGradient>
<linearGradient id="paint6_linear_1_31388" x1="158.501" y1="-8.63466" x2="120.904" y2="49.6115" gradientUnits="userSpaceOnUse">
<stop stop-color="#680F24"/>
<stop offset="1" stop-color="#0F141A" stop-opacity="0.07"/>
</linearGradient>
<linearGradient id="paint7_linear_1_31388" x1="181.501" y1="-8.63466" x2="143.904" y2="49.6115" gradientUnits="userSpaceOnUse">
<stop stop-color="#680F24"/>
<stop offset="1" stop-color="#0F141A" stop-opacity="0.07"/>
</linearGradient>
<linearGradient id="paint8_linear_1_31388" x1="204.501" y1="-8.63466" x2="166.904" y2="49.6115" gradientUnits="userSpaceOnUse">
<stop stop-color="#680F24"/>
<stop offset="1" stop-color="#0F141A" stop-opacity="0.07"/>
</linearGradient>
<linearGradient id="paint9_linear_1_31388" x1="227.501" y1="-8.63466" x2="189.904" y2="49.6115" gradientUnits="userSpaceOnUse">
<stop stop-color="#680F24"/>
<stop offset="1" stop-color="#0F141A" stop-opacity="0.07"/>
</linearGradient>
<linearGradient id="paint10_linear_1_31388" x1="250.501" y1="-8.63466" x2="212.904" y2="49.6115" gradientUnits="userSpaceOnUse">
<stop stop-color="#680F24"/>
<stop offset="1" stop-color="#0F141A" stop-opacity="0.07"/>
</linearGradient>
<linearGradient id="paint11_linear_1_31388" x1="273.501" y1="-8.63466" x2="235.904" y2="49.6115" gradientUnits="userSpaceOnUse">
<stop stop-color="#680F24"/>
<stop offset="1" stop-color="#0F141A" stop-opacity="0.07"/>
</linearGradient>
<linearGradient id="paint12_linear_1_31388" x1="296.501" y1="-8.63466" x2="258.904" y2="49.6115" gradientUnits="userSpaceOnUse">
<stop stop-color="#680F24"/>
<stop offset="1" stop-color="#0F141A" stop-opacity="0.07"/>
</linearGradient>
<linearGradient id="paint13_linear_1_31388" x1="319.501" y1="-8.63466" x2="281.904" y2="49.6115" gradientUnits="userSpaceOnUse">
<stop stop-color="#680F24"/>
<stop offset="1" stop-color="#0F141A" stop-opacity="0.07"/>
</linearGradient>
</defs>
</svg>
