<svg width="14" height="13" viewBox="0 0 14 13" fill="none" xmlns="http://www.w3.org/2000/svg">
<path d="M3.01502 4.93827L1.71291 6.24038C0.195959 7.75732 0.195959 10.2165 1.71291 11.7345C3.23094 13.2515 5.69012 13.2515 7.20707 11.7345L8.50918 10.4324C8.82762 10.114 8.82762 9.59489 8.50918 9.27645C8.18965 8.95692 7.67164 8.95692 7.35211 9.27645L6.05109 10.5775C5.17211 11.4554 3.74895 11.4554 2.86997 10.5775C1.99208 9.69849 1.99208 8.27533 2.86997 7.39635L4.17099 6.09533C4.49052 5.7758 4.49052 5.2578 4.17099 4.93827C3.85255 4.61983 3.33345 4.61983 3.01502 4.93827ZM8.00316 4.2883L4.53305 7.75841C4.21352 8.07685 4.21352 8.59595 4.53305 8.91439C4.85149 9.23392 5.37059 9.23392 5.68903 8.91439L9.15914 5.44428C9.47867 5.12584 9.47867 4.60674 9.15914 4.2883C8.8407 3.96877 8.3216 3.96877 8.00316 4.2883ZM6.34009 3.92624L7.6411 2.62522C8.52008 1.74733 9.94324 1.74733 10.8222 2.62522C11.7001 3.5042 11.7001 4.92736 10.8222 5.80634L9.5212 7.10736C9.20167 7.42689 9.20167 7.9449 9.5212 8.26443C9.83964 8.58286 10.3587 8.58286 10.6772 8.26443L11.9793 6.96232C13.4962 5.44537 13.4962 2.98619 11.9793 1.46815C10.4613 -0.0487925 8.00207 -0.0487925 6.48513 1.46815L5.18302 2.77026C4.86458 3.0887 4.86458 3.6078 5.18302 3.92624C5.50255 4.24577 6.02056 4.24577 6.34009 3.92624Z" fill="white"/>
</svg>
