<?xml version="1.0" encoding="UTF-8" standalone="no"?>
<svg
   width="7.2222242"
   height="7.2222209"
   viewBox="0 0 7.2222242 7.2222209"
   fill="none"
   version="1.1"
   id="svg1886"
   sodipodi:docname="linked-icon.svg"
   inkscape:version="1.2.1 (9c6d41e410, 2022-07-14)"
   xmlns:inkscape="http://www.inkscape.org/namespaces/inkscape"
   xmlns:sodipodi="http://sodipodi.sourceforge.net/DTD/sodipodi-0.dtd"
   xmlns="http://www.w3.org/2000/svg"
   xmlns:svg="http://www.w3.org/2000/svg">
  <defs
     id="defs1890" />
  <sodipodi:namedview
     id="namedview1888"
     pagecolor="#ffffff"
     bordercolor="#000000"
     borderopacity="0.25"
     inkscape:showpageshadow="2"
     inkscape:pageopacity="0.0"
     inkscape:pagecheckerboard="0"
     inkscape:deskcolor="#d1d1d1"
     showgrid="false"
     inkscape:zoom="100.5"
     inkscape:cx="3.6119403"
     inkscape:cy="3.6169154"
     inkscape:window-width="1920"
     inkscape:window-height="991"
     inkscape:window-x="-9"
     inkscape:window-y="-9"
     inkscape:window-maximized="1"
     inkscape:current-layer="svg1886" />
  <path
     fill-rule="evenodd"
     clip-rule="evenodd"
     d="m 7.222224,7.222221 h -1.48394 v -2.52748 c 0,-0.69297 -0.26331,-1.08022 -0.8118,-1.08022 -0.59668,0 -0.90842,0.40299 -0.90842,1.08022 v 2.52748 h -1.4301 v -4.81481 h 1.4301 v 0.64855 c 0,0 0.43,-0.79565 1.45174,-0.79565 1.02126,0 1.75242,0.62364 1.75242,1.91347 z M 0.881854,1.776951 C 0.39473,1.776951 0,1.379121 0,0.888471 0,0.397828 0.39473,0 0.881854,0 c 0.48712,0 0.88162,0.397828 0.88162,0.888471 0,0.49065 -0.3945,0.88848 -0.88162,0.88848 z M 0.14341,7.222221 H 1.634644 V 2.407411 H 0.14341 Z"
     fill="#9e9e9e"
     id="path1884" />
</svg>
