<?xml version="1.0" encoding="UTF-8" standalone="no"?>
<svg
   width="22.615128"
   height="22.61545"
   viewBox="0 0 22.615128 22.61545"
   fill="none"
   version="1.1"
   id="svg10"
   sodipodi:docname="menu-icon.svg"
   inkscape:version="1.2.1 (9c6d41e410, 2022-07-14)"
   xmlns:inkscape="http://www.inkscape.org/namespaces/inkscape"
   xmlns:sodipodi="http://sodipodi.sourceforge.net/DTD/sodipodi-0.dtd"
   xmlns="http://www.w3.org/2000/svg"
   xmlns:svg="http://www.w3.org/2000/svg">
  <defs
     id="defs14" />
  <sodipodi:namedview
     id="namedview12"
     pagecolor="#ffffff"
     bordercolor="#000000"
     borderopacity="0.25"
     inkscape:showpageshadow="2"
     inkscape:pageopacity="0.0"
     inkscape:pagecheckerboard="0"
     inkscape:deskcolor="#d1d1d1"
     showgrid="false"
     inkscape:zoom="15.291667"
     inkscape:cx="1.4386921"
     inkscape:cy="14.648501"
     inkscape:window-width="1920"
     inkscape:window-height="991"
     inkscape:window-x="-9"
     inkscape:window-y="-9"
     inkscape:window-maximized="1"
     inkscape:current-layer="svg10" />
  <path
     id="rect2"
     style="fill:#404c59"
     d="M 1.6152344 0 C 0.72031477 0 0 0.72031477 0 1.6152344 L 0 8.0761719 C 0 8.9710915 0.72031477 9.6914062 1.6152344 9.6914062 L 8.0761719 9.6914062 C 8.9710915 9.6914063 9.6914062 8.9710915 9.6914062 8.0761719 L 9.6914062 1.6152344 C 9.6914063 0.72031477 8.9710915 0 8.0761719 0 L 1.6152344 0 z M 14.539062 0 C 13.644143 0 12.921875 0.72031477 12.921875 1.6152344 L 12.921875 8.0761719 C 12.921875 8.9710915 13.644143 9.6914062 14.539062 9.6914062 L 21 9.6914062 C 21.894919 9.6914063 22.615234 8.9710915 22.615234 8.0761719 L 22.615234 1.6152344 C 22.615234 0.72031477 21.894919 0 21 0 L 14.539062 0 z M 1.6152344 12.923828 C 0.72031477 12.923828 0 13.644142 0 14.539062 L 0 21 C 0 21.894919 0.72031477 22.615234 1.6152344 22.615234 L 8.0761719 22.615234 C 8.9710915 22.615234 9.6914062 21.894919 9.6914062 21 L 9.6914062 14.539062 C 9.6914063 13.644142 8.9710915 12.923828 8.0761719 12.923828 L 1.6152344 12.923828 z M 14.539062 12.923828 C 13.644143 12.923828 12.921875 13.644142 12.921875 14.539062 L 12.921875 21 C 12.921875 21.894919 13.644143 22.615234 14.539062 22.615234 L 21 22.615234 C 21.894919 22.615234 22.615234 21.894919 22.615234 21 L 22.615234 14.539062 C 22.615234 13.644142 21.894919 12.923828 21 12.923828 L 14.539062 12.923828 z " />
</svg>
