<svg width="10" height="11" viewBox="0 0 10 11" fill="none" xmlns="http://www.w3.org/2000/svg">
<path d="M9.12079 2.08369L7.58259 0.362528C7.48068 0.248584 7.35589 0.157405 7.21636 0.0949393C7.07683 0.0324733 6.92571 0.00012352 6.77284 0H1.0842C0.796924 0.000893542 0.521673 0.115408 0.318541 0.318541C0.115408 0.521673 0.000893542 0.796924 0 1.0842V9.75776C0.000893542 10.045 0.115408 10.3203 0.318541 10.5234C0.521673 10.7265 0.796924 10.8411 1.0842 10.842H8.31443C8.6017 10.8411 8.87695 10.7265 9.08008 10.5234C9.28321 10.3203 9.39773 10.045 9.39862 9.75776V2.80536C9.39948 2.53853 9.30036 2.28106 9.12079 2.08369V2.08369ZM8.55159 2.53092H6.85754V0.741996C6.92491 0.758009 6.98613 0.793334 7.03372 0.84364L8.55159 2.53092ZM8.56853 10.0119C8.50146 10.0801 8.41012 10.1191 8.31443 10.1203H1.0842C0.988503 10.1191 0.897159 10.0801 0.830087 10.0119C0.795793 9.97921 0.768727 9.93972 0.750636 9.89595C0.732545 9.85218 0.72383 9.8051 0.725056 9.75776V1.0842C0.725922 0.988899 0.763933 0.8977 0.831003 0.829997C0.898074 0.762294 0.988911 0.723429 1.0842 0.721668H6.14603V2.89006C6.14559 2.93751 6.15455 2.98457 6.17239 3.02854C6.19024 3.0725 6.21662 3.11249 6.25002 3.1462C6.28341 3.17991 6.32316 3.20667 6.36695 3.22493C6.41075 3.24319 6.45772 3.25259 6.50517 3.25259H8.67356V9.75776C8.67479 9.8051 8.66608 9.85218 8.64799 9.89595C8.62989 9.93972 8.60283 9.97921 8.56853 10.0119V10.0119Z" fill="white"/>
<path d="M6.14594 8.31104H5.06175C4.9656 8.31104 4.87339 8.34923 4.8054 8.41722C4.73741 8.4852 4.69922 8.57741 4.69922 8.67356C4.69922 8.76971 4.73741 8.86192 4.8054 8.92991C4.87339 8.9979 4.9656 9.03609 5.06175 9.03609H6.14594C6.24209 9.03609 6.3343 8.9979 6.40229 8.92991C6.47028 8.86192 6.50847 8.76971 6.50847 8.67356C6.50847 8.57741 6.47028 8.4852 6.40229 8.41722C6.3343 8.34923 6.24209 8.31104 6.14594 8.31104V8.31104Z" fill="white"/>
<path d="M7.22972 9.03609C7.42993 9.03609 7.59224 8.87378 7.59224 8.67356C7.59224 8.47334 7.42993 8.31104 7.22972 8.31104C7.0295 8.31104 6.86719 8.47334 6.86719 8.67356C6.86719 8.87378 7.0295 9.03609 7.22972 9.03609Z" fill="white"/>
<path d="M2.16834 3.25243H3.97759C4.06726 3.24373 4.15048 3.20196 4.21102 3.13525C4.27157 3.06854 4.30512 2.98168 4.30512 2.8916C4.30512 2.80151 4.27157 2.71465 4.21102 2.64794C4.15048 2.58123 4.06726 2.53946 3.97759 2.53076H2.16834C2.07868 2.53946 1.99546 2.58123 1.93491 2.64794C1.87436 2.71465 1.84082 2.80151 1.84082 2.8916C1.84082 2.98168 1.87436 3.06854 1.93491 3.13525C1.99546 3.20196 2.07868 3.24373 2.16834 3.25243Z" fill="white"/>
<path d="M2.16834 5.05858H7.23018C7.31985 5.04988 7.40306 5.00811 7.46361 4.9414C7.52416 4.8747 7.5577 4.78784 7.5577 4.69775C7.5577 4.60766 7.52416 4.5208 7.46361 4.45409C7.40306 4.38739 7.31985 4.34561 7.23018 4.33691H2.16834C2.07868 4.34561 1.99546 4.38739 1.93491 4.45409C1.87436 4.5208 1.84082 4.60766 1.84082 4.69775C1.84082 4.78784 1.87436 4.8747 1.93491 4.9414C1.99546 5.00811 2.07868 5.04988 2.16834 5.05858V5.05858Z" fill="white"/>
<path d="M7.58917 6.50511C7.58962 6.45766 7.58066 6.41059 7.56281 6.36663C7.54496 6.32266 7.51858 6.28267 7.48519 6.24896C7.45179 6.21525 7.41205 6.1885 7.36825 6.17024C7.32446 6.15198 7.27748 6.14258 7.23003 6.14258H2.16819C2.07204 6.14258 1.97983 6.18077 1.91185 6.24876C1.84386 6.31675 1.80566 6.40896 1.80566 6.50511C1.80566 6.60125 1.84386 6.69346 1.91185 6.76145C1.97983 6.82944 2.07204 6.86763 2.16819 6.86763H7.23003C7.27748 6.86764 7.32446 6.85824 7.36825 6.83998C7.41205 6.82172 7.45179 6.79496 7.48519 6.76125C7.51858 6.72754 7.54496 6.68755 7.56281 6.64358C7.58066 6.59962 7.58962 6.55255 7.58917 6.50511V6.50511Z" fill="white"/>
</svg>
