<?xml version="1.0" encoding="UTF-8" standalone="no"?>
<svg
   width="9.1666403"
   height="10"
   viewBox="0 0 9.1666403 10"
   fill="none"
   version="1.1"
   id="svg6"
   sodipodi:docname="paste-icon.svg"
   inkscape:version="1.2.1 (9c6d41e410, 2022-07-14)"
   xmlns:inkscape="http://www.inkscape.org/namespaces/inkscape"
   xmlns:sodipodi="http://sodipodi.sourceforge.net/DTD/sodipodi-0.dtd"
   xmlns="http://www.w3.org/2000/svg"
   xmlns:svg="http://www.w3.org/2000/svg">
  <defs
     id="defs10" />
  <sodipodi:namedview
     id="namedview8"
     pagecolor="#ffffff"
     bordercolor="#000000"
     borderopacity="0.25"
     inkscape:showpageshadow="2"
     inkscape:pageopacity="0.0"
     inkscape:pagecheckerboard="0"
     inkscape:deskcolor="#d1d1d1"
     showgrid="false"
     inkscape:zoom="80.4"
     inkscape:cx="5"
     inkscape:cy="5.0062189"
     inkscape:window-width="1920"
     inkscape:window-height="991"
     inkscape:window-x="-9"
     inkscape:window-y="-9"
     inkscape:window-maximized="1"
     inkscape:current-layer="svg6" />
  <path
     d="M 3.64586,8.12502 C 2.6696,8.12502 1.875,7.33042 1.875,6.35416 V 2.08337 H 1.14586 C 0.513764,2.08337 0,2.59706 0,3.22916 v 5.625 C 0,9.48625 0.513764,10 1.14586,10 H 6.35414 C 6.98624,10 7.5,9.48625 7.5,8.85416 V 8.12502 Z"
     fill="#9e9e9e"
     id="path2" />
  <path
     d="M 9.16664,1.14586 C 9.16664,0.512924 8.65372,0 8.02086,0 h -4.375 C 3.01292,0 2.5,0.512924 2.5,1.14586 V 6.35414 C 2.5,6.98708 3.01292,7.5 3.64586,7.5 h 4.375 c 0.63286,0 1.14578,-0.51292 1.14578,-1.14586 z"
     fill="#0d6169"
     id="path4" />
</svg>
