<svg width="10" height="10" viewBox="0 0 10 10" fill="none" xmlns="http://www.w3.org/2000/svg">
<path d="M1.36668 5.07017C1.34901 4.92294 1.33993 4.77668 1.33993 4.64802C1.33993 2.72759 2.92412 1.1434 4.84455 1.1434C5.74034 1.1434 6.57898 1.50458 7.19587 2.06782L6.88652 2.38255C6.81681 2.45226 6.78999 2.55416 6.81681 2.65076C6.84901 2.74191 6.9241 2.81169 7.02062 2.83313C7.07462 2.84395 8.8483 3.41551 8.73536 3.39281C8.87903 3.44065 9.09151 3.28741 9.0519 3.07633C9.04101 3.02227 8.64833 1.05197 8.67103 1.16484C8.64959 1.06831 8.57981 0.987852 8.48328 0.961031C8.39213 0.93421 8.29016 0.961031 8.22045 1.03074L7.95762 1.28819C7.14761 0.531893 6.03537 0.0705566 4.84455 0.0705566C2.32875 0.0705566 0.26709 2.13222 0.26709 4.64802V4.65871C0.26709 4.80993 0.274005 4.92678 0.282037 5.01618C0.292724 5.13464 0.380032 5.23166 0.496676 5.25506L1.0477 5.36521C1.22706 5.40111 1.38834 5.25073 1.36668 5.07017Z" fill="#D61446"/>
<path d="M9.19371 4.04048L8.64108 3.92789C8.46151 3.89129 8.29911 4.04181 8.32118 4.2232C8.34032 4.37973 8.34884 4.53192 8.34884 4.64794C8.34884 6.5683 6.76465 8.15256 4.84422 8.15256C3.94844 8.15256 3.10979 7.79138 2.49291 7.22276L2.80226 6.91341C2.87196 6.8437 2.89878 6.7418 2.87196 6.6452C2.83976 6.55398 2.76468 6.48427 2.66815 6.46283C2.61416 6.45193 0.840476 5.88045 0.953418 5.90315C0.862198 5.88708 0.770978 5.91391 0.712028 5.97823C0.647629 6.03725 0.620808 6.13378 0.636873 6.21962C0.647769 6.27362 1.04052 8.22604 1.01782 8.11316C1.03919 8.20976 1.10897 8.29023 1.20549 8.31698C1.31746 8.34506 1.41091 8.31111 1.46833 8.24727L1.72585 7.98982C2.53579 8.74618 3.64803 9.2254 4.84422 9.2254C7.36002 9.2254 9.42169 7.16374 9.42169 4.64794V4.6318C9.42169 4.51292 9.41736 4.39621 9.40744 4.28019C9.39724 4.16166 9.31028 4.0643 9.19371 4.04048Z" fill="#D61446"/>
</svg>
