<svg width="11" height="11" viewBox="0 0 11 11" fill="none" xmlns="http://www.w3.org/2000/svg">
<path d="M10.3437 3.88631C10.1297 3.85349 9.92552 3.77011 9.74631 3.64239C9.56709 3.51467 9.41747 3.3459 9.30857 3.14864C9.19968 2.95139 9.13432 2.73072 9.11737 2.50309C9.10042 2.27546 9.13231 2.04672 9.21067 1.83391C9.26048 1.69478 9.26782 1.54268 9.23165 1.39893C9.19548 1.25518 9.11763 1.12698 9.009 1.03231C8.52941 0.606989 7.98352 0.272865 7.39567 0.0448388C7.26181 -0.00767827 7.11567 -0.0142399 6.97807 0.0260887C6.84047 0.0664173 6.71843 0.151579 6.62934 0.269441C6.49524 0.450537 6.32385 0.597006 6.12818 0.697739C5.93251 0.798471 5.71768 0.850823 5.5 0.850823C5.28232 0.850823 5.0675 0.798471 4.87183 0.697739C4.67615 0.597006 4.50477 0.450537 4.37067 0.269441C4.28158 0.151579 4.15954 0.0664173 4.02194 0.0260887C3.88434 -0.0142399 3.7382 -0.00767827 3.60434 0.0448388C3.06155 0.255362 2.55406 0.556031 2.10101 0.935502C1.98681 1.03098 1.90455 1.16257 1.86628 1.31099C1.82801 1.45942 1.83574 1.61689 1.88834 1.76033C1.97295 1.97877 2.00791 2.21512 1.99041 2.4504C1.97291 2.68569 1.90344 2.91337 1.78758 3.11518C1.67172 3.31699 1.51268 3.48732 1.32323 3.61249C1.13378 3.73766 0.919191 3.8142 0.696674 3.83597C0.55221 3.85228 0.416523 3.91715 0.309588 4.02102C0.202654 4.1249 0.130123 4.26228 0.102675 4.41296C0.0344004 4.76989 7.93481e-06 5.13311 7.93481e-06 5.49725C-0.000493883 5.8021 0.0228073 6.10647 0.0696746 6.40727C0.093 6.56278 0.164181 6.70584 0.272214 6.81434C0.380246 6.92283 0.519112 6.99072 0.667341 7.0075C0.894745 7.03004 1.11373 7.10978 1.30597 7.24005C1.4982 7.37031 1.6581 7.54732 1.77226 7.75624C1.88643 7.96516 1.95156 8.19993 1.96218 8.44089C1.97281 8.68185 1.92863 8.922 1.83334 9.14122C1.77098 9.28382 1.75551 9.44434 1.78939 9.59728C1.82327 9.75023 1.90455 9.88683 2.02034 9.98542C2.49705 10.403 3.03768 10.7317 3.61901 10.9574C3.69334 10.9846 3.77134 10.999 3.85 11C3.95787 10.9998 4.0641 10.9722 4.1598 10.9196C4.2555 10.8671 4.33787 10.7911 4.4 10.6979C4.53069 10.4969 4.70587 10.3325 4.91034 10.2191C5.11482 10.1057 5.3424 10.0468 5.57334 10.0474C5.7971 10.0477 6.0177 10.1031 6.21758 10.2094C6.41746 10.3156 6.5911 10.4696 6.72467 10.6592C6.81352 10.7854 6.93937 10.8769 7.08262 10.9196C7.22587 10.9624 7.37847 10.9539 7.51667 10.8954C8.04822 10.6695 8.54308 10.3572 8.98333 9.96993C9.09393 9.87336 9.17267 9.74224 9.20825 9.59542C9.24383 9.4486 9.23441 9.29365 9.18133 9.15284C9.09509 8.93722 9.05749 8.70337 9.07149 8.46977C9.0855 8.23616 9.15072 8.00919 9.26202 7.80677C9.37332 7.60435 9.52764 7.43203 9.71281 7.3034C9.89798 7.17477 10.1089 7.09336 10.329 7.06559C10.4717 7.04475 10.6044 6.97647 10.7079 6.87064C10.8114 6.76482 10.8803 6.62694 10.9047 6.47698C10.9636 6.15398 10.9955 5.82614 11 5.49725C11.0001 5.15033 10.9694 4.80418 10.9083 4.4633C10.8836 4.31666 10.8157 4.18197 10.7143 4.07839C10.613 3.97481 10.4833 3.9076 10.3437 3.88631V3.88631ZM7.33334 5.49725C7.33334 5.8802 7.22581 6.25455 7.02436 6.57296C6.82291 6.89137 6.53659 7.13954 6.20159 7.28609C5.86659 7.43264 5.49797 7.47098 5.14234 7.39627C4.78671 7.32156 4.46004 7.13715 4.20364 6.86637C3.94725 6.59558 3.77264 6.25058 3.7019 5.87499C3.63116 5.4994 3.66747 5.11009 3.80623 4.75629C3.94499 4.40249 4.17997 4.10009 4.48146 3.88734C4.78295 3.67458 5.1374 3.56102 5.5 3.56102C5.98623 3.56102 6.45255 3.76502 6.79636 4.12813C7.14018 4.49124 7.33334 4.98373 7.33334 5.49725Z" fill="#8D969D"/>
</svg>
