<svg width="14" height="15" viewBox="0 0 14 15" fill="none" xmlns="http://www.w3.org/2000/svg">
<path d="M3.01294 0.996582C2.47508 0.996582 1.98301 1.12818 1.5367 1.39139C1.0904 1.65459 0.735647 2.00935 0.472443 2.45565C0.209239 2.90195 0.0776367 3.39403 0.0776367 3.93188V11.7937C0.0776367 12.3315 0.209239 12.8236 0.472443 13.2699C0.735647 13.7162 1.0904 14.071 1.5367 14.3342C1.98301 14.5974 2.47508 14.729 3.01294 14.729H10.8747C11.4126 14.729 11.9047 14.5974 12.351 14.3342C12.7973 14.071 13.152 13.7162 13.4152 13.2699C13.6784 12.8236 13.81 12.3315 13.81 11.7937V3.93188C13.81 3.39403 13.6784 2.90195 13.4152 2.45565C13.152 2.00935 12.7973 1.65459 12.351 1.39139C11.9047 1.12818 11.4126 0.996582 10.8747 0.996582H3.01294ZM9.8963 3.14227C10.354 3.14227 10.746 3.30248 11.0721 3.6229C11.3983 3.94333 11.5614 4.33241 11.5614 4.79016C11.5614 5.2479 11.3983 5.63985 11.0721 5.96599C10.746 6.29214 10.354 6.45521 9.8963 6.45521C9.49577 6.45521 9.14102 6.32361 8.83204 6.0604L5.63926 7.69112V7.82845C5.63926 7.92 5.63353 8.00583 5.62209 8.08593L8.78054 9.69949C9.10096 9.4134 9.47288 9.27035 9.8963 9.27035C10.354 9.27035 10.746 9.43342 11.0721 9.75957C11.3983 10.0857 11.5614 10.4777 11.5614 10.9354C11.5614 11.3931 11.3983 11.7822 11.0721 12.1027C10.746 12.4231 10.354 12.5833 9.8963 12.5833C9.43855 12.5833 9.04947 12.4231 8.72905 12.1027C8.40862 11.7822 8.24841 11.3931 8.24841 10.9354V10.8324L4.9698 9.16736C4.68371 9.38479 4.35757 9.4935 3.99137 9.4935C3.53362 9.4935 3.14168 9.33043 2.81553 9.00428C2.48939 8.67814 2.32632 8.28619 2.32632 7.82845C2.32632 7.3707 2.48939 6.98162 2.81553 6.66119C3.14168 6.34077 3.53362 6.18056 3.99137 6.18056C4.3919 6.18056 4.74665 6.31216 5.05563 6.57537L8.24841 4.94465V4.79016C8.24841 4.33241 8.40862 3.94333 8.72905 3.6229C9.04947 3.30248 9.43855 3.14227 9.8963 3.14227Z" fill="#6B6B6B"/>
</svg>
