<svg width="18" height="17" viewBox="0 0 18 17" fill="none" xmlns="http://www.w3.org/2000/svg">
<path d="M9.5407 7.79187V9.20855H8.12402V7.79187H9.5407Z" fill="#404C59"/>
<path fill-rule="evenodd" clip-rule="evenodd" d="M8.83301 17C1.83326 17 0.333008 15.4998 0.333008 8.5C0.333008 1.50025 1.83326 0 8.83301 0C15.8328 0 17.333 1.50025 17.333 8.5C17.333 15.4998 15.8328 17 8.83301 17ZM6.70801 4.95832C6.70801 4.56712 7.02513 4.25 7.41633 4.25C7.80753 4.25 8.12465 4.56712 8.12465 4.95832V6.375H9.54133V4.95832C9.54133 4.56712 9.85845 4.25 10.2497 4.25C10.6409 4.25 10.958 4.56712 10.958 4.95832V6.375H12.3747C12.7659 6.375 13.083 6.69212 13.083 7.08332C13.083 7.47452 12.7659 7.79164 12.3747 7.79164H10.958V9.20832H12.3747C12.7659 9.20832 13.083 9.52544 13.083 9.91664C13.083 10.3078 12.7659 10.625 12.3747 10.625H10.958V12.0417C10.958 12.4329 10.6409 12.75 10.2497 12.75C9.85849 12.75 9.54136 12.4329 9.54136 12.0417V10.625H8.12469V12.0417C8.12469 12.4329 7.80756 12.75 7.41636 12.75C7.02513 12.75 6.70801 12.4329 6.70801 12.0417V10.625H5.29133C4.90013 10.625 4.58301 10.3079 4.58301 9.91668C4.58301 9.52548 4.90013 9.20836 5.29133 9.20836H6.70801V7.79168H5.29133C4.90013 7.79168 4.58301 7.47455 4.58301 7.08336C4.58301 6.69216 4.90013 6.37503 5.29133 6.37503H6.70801V4.95832Z" fill="#404C59"/>
</svg>
