<?xml version="1.0" encoding="UTF-8" standalone="no"?>
<svg
   width="8"
   height="8.0000029"
   viewBox="0 0 8 8.0000029"
   fill="none"
   version="1.1"
   id="svg2741"
   sodipodi:docname="twitter-icon.svg"
   inkscape:version="1.2.1 (9c6d41e410, 2022-07-14)"
   xmlns:inkscape="http://www.inkscape.org/namespaces/inkscape"
   xmlns:sodipodi="http://sodipodi.sourceforge.net/DTD/sodipodi-0.dtd"
   xmlns="http://www.w3.org/2000/svg"
   xmlns:svg="http://www.w3.org/2000/svg">
  <defs
     id="defs2745" />
  <sodipodi:namedview
     id="namedview2743"
     pagecolor="#ffffff"
     bordercolor="#000000"
     borderopacity="0.25"
     inkscape:showpageshadow="2"
     inkscape:pageopacity="0.0"
     inkscape:pagecheckerboard="0"
     inkscape:deskcolor="#d1d1d1"
     showgrid="false"
     inkscape:zoom="100.5"
     inkscape:cx="4"
     inkscape:cy="5.1393035"
     inkscape:window-width="1920"
     inkscape:window-height="991"
     inkscape:window-x="-9"
     inkscape:window-y="-9"
     inkscape:window-maximized="1"
     inkscape:current-layer="svg2741" />
  <path
     fill-rule="evenodd"
     clip-rule="evenodd"
     d="m 5.18268,0.03219351 c -0.1549,0.04209 -0.24916,0.0825215 -0.3835,0.1644895 C 4.36148,0.46379001 4.04794,0.93879901 3.92292,1.52428 3.87837,1.73281 3.86305,2.131 3.89155,2.33931 L 3.90768,2.45726 3.72411,2.44226 C 3.06969,2.38875 2.35131,2.10254 1.74104,1.65212 1.40401,1.40335 1.15972,1.16473 0.829261,0.76142501 0.476523,0.33095801 0.50738,0.34098201 0.416284,0.62717401 0.261136,1.11456 0.248667,1.55897 0.377679,2.00275 0.478077,2.34815 0.690907,2.72602 0.905252,2.93943 L 1.01698,3.05068 H 0.955363 c -0.11442,0 -0.36387,-0.07486 -0.517229,-0.15521 L 0.285719,2.81559 v 0.11855 c 0,0.42338 0.182878,0.93692 0.459291,1.28979 0.204728,0.26136 0.40696,0.41763 0.6912,0.53414 L 1.59354,4.82257 1.42419,4.85343 C 1.32641,4.87124 1.1704,4.87932 1.05505,4.87254 0.820529,4.85872 0.826862,4.8373 0.96791,5.16756 1.12164,5.5275 1.37412,5.83624 1.66237,6.01678 1.87269,6.14849 1.9829,6.19221 2.2022,6.23091 L 2.37658,6.26168 2.29973,6.33572 C 2.25746,6.37644 2.16316,6.45427 2.09018,6.50869 1.52099,6.93317 0.884583,7.13699 0.219541,7.10778 -0.0727032,7.09495 -0.0727033,7.09547 0.216689,7.28544 1.20639,7.93509 2.27495,8.14364 3.38319,7.90341 5.0607,7.53976 6.39508,6.07988 6.94281,4.00896 7.09023,3.4516 7.16899,2.86282 7.16899,2.3182 V 1.99879 L 7.28207,1.89509 C 7.49437,1.70038 7.82166,1.27177 7.96482,1.00101 L 8,0.93444801 7.90792,0.98269101 C 7.70833,1.08726 7.12576,1.27513 7.09973,1.24331 7.09546,1.23809 7.15503,1.17502 7.23212,1.10317 7.45016,0.89993001 7.6593,0.54955701 7.74986,0.23579301 l 0.02575,-0.089132 -0.23941,0.14014 c -0.22459,0.131486 -0.49227,0.250496 -0.706,0.313908 l -0.09299,0.027595 -0.10368,-0.114564 C 6.42696,0.28552701 6.17819,0.12570001 5.90495,0.04563051 5.718,-0.00915137 5.35942,-0.01580979 5.18268,0.03219351 Z"
     fill="#9e9e9e"
     id="path2739" />
</svg>
