<?xml version="1.0" encoding="UTF-8" standalone="no"?>
<svg
   width="10.418561"
   height="8.6153698"
   viewBox="0 0 10.418561 8.6153698"
   fill="none"
   version="1.1"
   id="svg6"
   sodipodi:docname="wallet-icon.svg"
   inkscape:version="1.2.1 (9c6d41e410, 2022-07-14)"
   xmlns:inkscape="http://www.inkscape.org/namespaces/inkscape"
   xmlns:sodipodi="http://sodipodi.sourceforge.net/DTD/sodipodi-0.dtd"
   xmlns="http://www.w3.org/2000/svg"
   xmlns:svg="http://www.w3.org/2000/svg">
  <defs
     id="defs10" />
  <sodipodi:namedview
     id="namedview8"
     pagecolor="#ffffff"
     bordercolor="#000000"
     borderopacity="0.25"
     inkscape:showpageshadow="2"
     inkscape:pageopacity="0.0"
     inkscape:pagecheckerboard="0"
     inkscape:deskcolor="#d1d1d1"
     showgrid="false"
     inkscape:zoom="31.584103"
     inkscape:cx="10.179171"
     inkscape:cy="2.8653655"
     inkscape:window-width="1920"
     inkscape:window-height="991"
     inkscape:window-x="-9"
     inkscape:window-y="-9"
     inkscape:window-maximized="1"
     inkscape:current-layer="svg6" />
  <path
     d="M 8.915931,0 H 1.502681 C 0.674101,0 0,0.674096 0,1.50268 V 7.1127 c 0,0.82858 0.674101,1.50267 1.502681,1.50267 h 7.41325 c 0.82863,0 1.50263,-0.67409 1.50263,-1.50267 V 1.50268 C 10.418561,0.674096 9.744561,0 8.915931,0 Z m 0.90163,5.2093 h -2.20396 c -0.49714,0 -0.90162,-0.40445 -0.90162,-0.90161 0,-0.49717 0.40446,-0.90162 0.90162,-0.90162 h 2.20396 z m 0,-2.40429 h -2.20396 c -0.82858,0 -1.50268,0.67409 -1.50268,1.50268 0,0.82858 0.6741,1.50268 1.50268,1.50268 h 2.20396 V 7.1127 c 0,0.49714 -0.4045,0.90161 -0.90163,0.90161 h -7.41325 c -0.49714,0 -0.90162,-0.40445 -0.90162,-0.90161 V 1.50268 c 0,-0.49714 0.40446,-0.901616 0.90162,-0.901616 h 7.41325 c 0.49713,0 0.90163,0.404456 0.90163,0.901616 z"
     fill="#ffffff"
     id="path2" />
  <path
     d="m 8.014721,4.00708 h -0.40071 c -0.16599,0 -0.30053,0.13457 -0.30053,0.30053 0,0.16599 0.13456,0.30053 0.30053,0.30053 h 0.40071 c 0.16598,0 0.30053,-0.13456 0.30053,-0.30053 0,-0.16598 -0.13455,-0.30053 -0.30053,-0.30053 z"
     fill="#ffffff"
     id="path4" />
</svg>
