<svg width="12" height="9" viewBox="0 0 12 9" fill="none" xmlns="http://www.w3.org/2000/svg">
<path d="M9.70597 0H2.29272C1.46414 0 0.790039 0.674096 0.790039 1.50268V7.1127C0.790039 7.94128 1.46414 8.61537 2.29272 8.61537H9.70597C10.5346 8.61537 11.2086 7.94128 11.2086 7.1127V1.50268C11.2086 0.674096 10.5346 0 9.70597 0ZM10.6076 5.2093H8.40364C7.9065 5.2093 7.50202 4.80485 7.50202 4.30769C7.50202 3.81052 7.90648 3.40607 8.40364 3.40607H10.6076V5.2093ZM10.6076 2.80501H8.40364C7.57506 2.80501 6.90096 3.4791 6.90096 4.30769C6.90096 5.13627 7.57506 5.81037 8.40364 5.81037H10.6076V7.1127C10.6076 7.60984 10.2031 8.01431 9.70597 8.01431H2.29272C1.79558 8.01431 1.3911 7.60986 1.3911 7.1127V1.50268C1.3911 1.00554 1.79556 0.601064 2.29272 0.601064H9.70597C10.2031 0.601064 10.6076 1.00552 10.6076 1.50268V2.80501Z" fill="white"/>
<path d="M8.80476 4.00708H8.40405C8.23806 4.00708 8.10352 4.14165 8.10352 4.30761C8.10352 4.4736 8.23808 4.60814 8.40405 4.60814H8.80476C8.97074 4.60814 9.10529 4.47358 9.10529 4.30761C9.10529 4.14163 8.97074 4.00708 8.80476 4.00708Z" fill="white"/>
</svg>
