<svg width="10" height="9" viewBox="0 0 10 9" fill="none" xmlns="http://www.w3.org/2000/svg">
<path d="M9.58917 0L5.46875 3.04881L6.23498 1.25205L9.58917 0Z" fill="#E17726"/>
<path d="M0.429688 0.00390625L3.77489 1.25259L4.50246 3.07292L0.429688 0.00390625Z" fill="#E27625"/>
<path d="M7.92814 6.48438L9.7493 6.51903L9.11283 8.68121L6.89062 8.06936L7.92814 6.48438Z" fill="#E27625"/>
<path d="M2.08303 6.48438L3.11671 8.06937L0.898221 8.68126L0.265625 6.51904L2.08303 6.48438Z" fill="#E27625"/>
<path d="M4.41039 2.6084L4.48484 5.01219L2.25781 4.91087L2.89127 3.9552L2.89929 3.94598L4.41039 2.6084Z" fill="#E27625"/>
<path d="M5.57437 2.58228L7.10854 3.94677L7.11647 3.95591L7.74995 4.91158L5.52344 5.01288L5.57437 2.58228Z" fill="#E27625"/>
<path d="M3.18092 6.49121L4.39694 7.43868L2.98438 8.12068L3.18092 6.49121Z" fill="#E27625"/>
<path d="M6.82551 6.49121L7.01797 8.12083L5.60938 7.43877L6.82551 6.49121Z" fill="#E27625"/>
<path d="M5.64062 7.34863L7.07003 8.04077L5.7404 8.6727L5.7542 8.25503L5.64062 7.34863Z" fill="#D5BFB2"/>
<path d="M4.37043 7.34863L4.2613 8.24789L4.27025 8.67189L2.9375 8.04046L4.37043 7.34863Z" fill="#D5BFB2"/>
<path d="M3.95289 5.32617L4.32642 6.11119L3.05469 5.73865L3.95289 5.32617Z" fill="#233447"/>
<path d="M6.05312 5.32617L6.95555 5.73855L5.67969 6.11099L6.05312 5.32617Z" fill="#233447"/>
<path d="M3.27611 6.4834L3.07054 8.17285L1.96875 6.52033L3.27611 6.4834Z" fill="#CC6228"/>
<path d="M6.73438 6.4834L8.04177 6.52033L6.93584 8.1729L6.73438 6.4834Z" fill="#CC6228"/>
<path d="M7.78214 4.81543L6.83067 5.78511L6.0971 5.44988L5.74587 6.18823L5.51562 4.91855L7.78214 4.81543Z" fill="#CC6228"/>
<path d="M2.22656 4.81543L4.49347 4.91857L4.26322 6.18825L3.91193 5.44999L3.18222 5.78514L2.22656 4.81543Z" fill="#CC6228"/>
<path d="M2.16406 4.61621L3.24055 5.70855L3.27785 6.78693L2.16406 4.61621Z" fill="#E27525"/>
<path d="M7.85015 4.61523L6.73438 6.78983L6.77638 5.70952L7.85015 4.61523Z" fill="#E27525"/>
<path d="M4.43927 4.68262L4.48259 4.95532L4.58965 5.63466L4.52083 7.72119L4.19542 6.04506L4.19531 6.02773L4.43927 4.68262Z" fill="#E27525"/>
<path d="M5.56741 4.67969L5.81202 6.02856L5.81191 6.04589L5.48569 7.72621L5.47278 7.30593L5.42188 5.62314L5.56741 4.67969Z" fill="#E27525"/>
<path d="M6.87033 5.66504L6.8339 6.60197L5.69831 7.48674L5.46875 7.32454L5.72608 5.99909L6.87033 5.66504Z" fill="#F5841F"/>
<path d="M3.14062 5.66504L4.28093 5.99911L4.53825 7.32452L4.30868 7.48672L3.17304 6.60188L3.14062 5.66504Z" fill="#F5841F"/>
<path d="M2.71875 7.83496L4.1716 8.52335L4.16545 8.22939L4.28701 8.12269H5.72493L5.85089 8.22904L5.84161 8.52278L7.28524 7.8367L6.58277 8.41719L5.73333 9.00062H4.27537L3.42647 8.41481L2.71875 7.83496Z" fill="#C0AC9D"/>
<path d="M5.53595 7.25781L5.74136 7.40291L5.86174 8.36336L5.68753 8.21626H4.31933L4.14844 8.36632L4.26486 7.40299L4.47035 7.25781H5.53595Z" fill="#161616"/>
<path d="M9.31321 0.0839844L9.80782 1.5678L9.49893 3.06808L9.71888 3.23776L9.42125 3.46484L9.64493 3.63759L9.34873 3.90735L9.53058 4.03904L9.04798 4.60267L7.06856 4.02634L7.05141 4.01715L5.625 2.81387L9.31321 0.0839844Z" fill="#763E1A"/>
<path d="M0.697737 0.0839844L4.38596 2.81387L2.95955 4.01715L2.9424 4.02634L0.962962 4.60267L0.480372 4.03904L0.662074 3.90745L0.366014 3.63759L0.589277 3.46503L0.287198 3.2373L0.515447 3.06751L0.203125 1.56785L0.697737 0.0839844Z" fill="#763E1A"/>
<path d="M6.96849 3.90039L9.06581 4.51101L9.7472 6.61105L7.94956 6.61105L6.71094 6.62668L7.61172 4.87089L6.96849 3.90039Z" fill="#F5841F"/>
<path d="M3.04055 3.90039L2.3972 4.87089L3.2981 6.62668L2.06008 6.61105H0.265625L0.943188 4.51103L3.04055 3.90039Z" fill="#F5841F"/>
<path d="M6.33425 1.24219L5.74762 2.82658L5.62313 4.96695L5.57549 5.63781L5.57171 7.35156H4.44222L4.43856 5.64102L4.39077 4.96636L4.26623 2.82658L3.67969 1.24219H6.33425Z" fill="#F5841F"/>
</svg>
