<svg width="9" height="9" viewBox="0 0 9 9" fill="none" xmlns="http://www.w3.org/2000/svg">
<path fill-rule="evenodd" clip-rule="evenodd" d="M4.5 0C6.98555 0 9 2.01445 9 4.5C9 6.98555 6.98555 9 4.5 9C2.01445 9 0 6.98555 0 4.5C0 2.01445 2.01445 0 4.5 0Z" fill="url(#paint0_radial_1_92)"/>
<path d="M2.85693 3.47466C3.76221 2.59048 5.23174 2.59048 6.13701 3.47466L6.246 3.58188C6.2917 3.62583 6.2917 3.6979 6.246 3.74185L5.87334 4.10571C5.85049 4.12856 5.81357 4.12856 5.79072 4.10571L5.64131 3.95981C5.0085 3.34282 3.98545 3.34282 3.35264 3.95981L3.19268 4.11626C3.16982 4.13911 3.13291 4.13911 3.11006 4.11626L2.7374 3.75239C2.6917 3.70845 2.6917 3.63638 2.7374 3.59243L2.85693 3.47466ZM6.90869 4.227L7.24092 4.55044C7.28662 4.59438 7.28662 4.66646 7.24092 4.7104L5.74502 6.17114C5.69932 6.21509 5.62549 6.21509 5.58154 6.17114L4.51982 5.13403C4.50928 5.12349 4.48994 5.12349 4.47939 5.13403L3.41768 6.17114C3.37197 6.21509 3.29814 6.21509 3.2542 6.17114L1.75303 4.7104C1.70732 4.66646 1.70732 4.59438 1.75303 4.55044L2.08525 4.227C2.13096 4.18306 2.20479 4.18306 2.24873 4.227L3.31045 5.26411C3.321 5.27466 3.34033 5.27466 3.35088 5.26411L4.4126 4.227C4.4583 4.18306 4.53213 4.18306 4.57607 4.227L5.63779 5.26411C5.64834 5.27466 5.66768 5.27466 5.67822 5.26411L6.73994 4.227C6.78916 4.18306 6.86299 4.18306 6.90869 4.227Z" fill="white"/>
<defs>
<radialGradient id="paint0_radial_1_92" cx="0" cy="0" r="1" gradientUnits="userSpaceOnUse" gradientTransform="translate(2.7895e-05 4.50014) scale(9)">
<stop stop-color="#5D9DF6"/>
<stop offset="1" stop-color="#006FFF"/>
</radialGradient>
</defs>
</svg>
