<svg width="8" height="11" viewBox="0 0 8 11" fill="none" xmlns="http://www.w3.org/2000/svg">
<path fill-rule="evenodd" clip-rule="evenodd" d="M3.8061 0.0770861C3.9182 -0.00876829 4.07749 -0.00876829 4.18959 0.0770861L6.23595 1.64427C6.36835 1.74565 6.3898 1.93057 6.28392 2.05729C6.178 2.18402 5.98486 2.20457 5.85246 2.10318L4.3048 0.917929V7.35888C4.3048 7.52117 4.16737 7.65273 3.99785 7.65273C3.82832 7.65273 3.69089 7.52117 3.69089 7.35888V0.917929L2.14323 2.10318C2.01087 2.20457 1.81769 2.18402 1.71181 2.05729C1.60589 1.93057 1.62738 1.74565 1.75974 1.64427L3.8061 0.0770861Z" fill="#B00F38"/>
<path fill-rule="evenodd" clip-rule="evenodd" d="M1.13331 4.12651C0.85075 4.12651 0.621721 4.34576 0.621721 4.61626V8.92602C0.621721 9.19652 0.85075 9.41577 1.13331 9.41577H6.86313C7.14569 9.41577 7.37472 9.19652 7.37472 8.92602V4.61626C7.37472 4.34576 7.14569 4.12651 6.86313 4.12651H5.75224C5.58272 4.12651 5.44529 3.99495 5.44529 3.83267C5.44529 3.67038 5.58272 3.53882 5.75224 3.53882H6.86313C7.48473 3.53882 7.98863 4.0212 7.98863 4.61626V8.92602C7.98863 9.52108 7.48473 10.0035 6.86313 10.0035H1.13331C0.511717 10.0035 0.0078125 9.52108 0.0078125 8.92602V4.61626C0.0078125 4.0212 0.511717 3.53882 1.13331 3.53882H2.2442C2.41372 3.53882 2.55116 3.67038 2.55116 3.83267C2.55116 3.99495 2.41372 4.12651 2.2442 4.12651H1.13331Z" fill="#B00F38"/>
</svg>
