<svg width="16" height="20" viewBox="0 0 16 20" fill="none" xmlns="http://www.w3.org/2000/svg">
<path d="M10.7391 17.5771C10.7391 18.5612 10.2145 19.3143 9.36249 19.8066C8.51073 20.2986 7.4612 20.2986 6.61103 19.8066C5.75874 19.3143 5.23438 18.5612 5.23438 17.5771" fill="#7A7A7A"/>
<path d="M7.98619 0.395508C8.73695 0.395508 9.34164 0.858369 9.34164 1.57016C9.34164 2.01817 9.35728 2.35246 9.63881 2.43809C12.0329 3.16101 13.5681 4.85552 13.5681 7.0561V10.7548C13.5681 12.4493 14.2613 12.7923 15.1338 13.4405C16.3972 14.3776 16.1088 16.329 14.659 16.3277H1.31393C-0.135891 16.329 -0.424318 14.3776 0.839141 13.4405C1.71052 12.7923 2.40481 12.4493 2.40481 10.7548V7.0561C2.40481 4.85552 3.94 3.16101 6.3341 2.43809C6.61484 2.35246 6.63127 2.01817 6.63127 1.57016C6.63154 0.858369 7.23649 0.395508 7.98619 0.395508Z" fill="#7A7A7A"/>
</svg>
