<svg width="12" height="12" viewBox="0 0 12 12" fill="none" xmlns="http://www.w3.org/2000/svg">
<path fill-rule="evenodd" clip-rule="evenodd" d="M6 11.3333C8.94553 11.3333 11.3333 8.94553 11.3333 6C11.3333 3.05448 8.94553 0.666667 6 0.666667C3.05448 0.666667 0.666667 3.05448 0.666667 6C0.666667 8.94553 3.05448 11.3333 6 11.3333ZM12 6C12 9.31373 9.31373 12 6 12C2.68629 12 0 9.31373 0 6C0 2.68629 2.68629 0 6 0C9.31373 0 12 2.68629 12 6Z" fill="#B00F38"/>
<path fill-rule="evenodd" clip-rule="evenodd" d="M5.66406 8.66759V4.66699H6.33073V8.66759H5.66406Z" fill="#B00F38"/>
<path fill-rule="evenodd" clip-rule="evenodd" d="M5.66406 4.00027V3.33301H6.33073V4.00027H5.66406Z" fill="#B00F38"/>
</svg>
