<svg width="25" height="24" viewBox="0 0 25 24" fill="none" xmlns="http://www.w3.org/2000/svg">
<path fill-rule="evenodd" clip-rule="evenodd" d="M12 2.25C6.61522 2.25 2.25 6.61522 2.25 12C2.25 17.3848 6.61522 21.75 12 21.75C17.3848 21.75 21.75 17.3848 21.75 12C21.75 6.61522 17.3848 2.25 12 2.25ZM3.75 12C3.75 7.44365 7.44365 3.75 12 3.75C16.5563 3.75 20.25 7.44365 20.25 12C20.25 16.5563 16.5563 20.25 12 20.25C7.44365 20.25 3.75 16.5563 3.75 12ZM8.59919 14.5496C8.35042 14.2184 7.88027 14.1516 7.54908 14.4003C7.21789 14.6491 7.15107 15.1192 7.39984 15.4504C8.4476 16.8454 10.1182 17.75 11.9999 17.75C13.8816 17.75 15.5522 16.8454 16.5999 15.4504C16.8487 15.1192 16.7819 14.6491 16.4507 14.4003C16.1195 14.1516 15.6493 14.2184 15.4006 14.5496C14.6239 15.5835 13.3898 16.25 11.9999 16.25C10.6099 16.25 9.37583 15.5835 8.59919 14.5496ZM10 10C10 10.5523 9.55228 11 9 11C8.44772 11 8 10.5523 8 10C8 9.44772 8.44772 9 9 9C9.55228 9 10 9.44772 10 10ZM15 11C15.5523 11 16 10.5523 16 10C16 9.44772 15.5523 9 15 9C14.4477 9 14 9.44772 14 10C14 10.5523 14.4477 11 15 11Z" fill="#22282F"/>
<path d="M21 1.75C21 1.05964 20.4404 0.5 19.75 0.5C19.0596 0.5 18.5 1.05964 18.5 1.75V3.5H16.75C16.0596 3.5 15.5 4.05964 15.5 4.75C15.5 5.44036 16.0596 6 16.75 6H18.5V7.75C18.5 8.44036 19.0596 9 19.75 9C20.4404 9 21 8.44036 21 7.75V6H22.75C23.4404 6 24 5.44036 24 4.75C24 4.05964 23.4404 3.5 22.75 3.5H21V1.75Z" fill="black" stroke="white" stroke-linecap="round" stroke-linejoin="round"/>
</svg>
